<svg xmlns="http://www.w3.org/2000/svg" xmlns:xlink="http://www.w3.org/1999/xlink" viewBox="0,0,256,256" width="80px" height="80px" fill-rule="nonzero"><g fill="#ffffff" fill-rule="nonzero" stroke="none" stroke-width="1" stroke-linecap="butt" stroke-linejoin="miter" stroke-miterlimit="10" stroke-dasharray="" stroke-dashoffset="0" font-family="none" font-weight="none" font-size="none" text-anchor="none" style="mix-blend-mode: normal"><g transform="scale(3.2,3.2)"><path d="M48.91797,7.00781c-1.26953,0 -2.54297,0.48047 -3.50781,1.44531l-36.95703,36.95703c-1.92969,1.92969 -1.92969,5.08594 0,7.01172l19.125,19.125c1.92578,1.92969 5.08203,1.92969 7.01172,0l36.95703,-36.95703c1.92969,-1.92969 1.92969,-5.08203 0,-7.01172l-19.125,-19.125c-0.96484,-0.96484 -2.23437,-1.44531 -3.50391,-1.44531zM48.91797,8.99219c0.75391,0 1.50781,0.29297 2.08984,0.875h0.00391c-0.00781,0.04297 -0.01172,0.08984 -0.01172,0.13281c0,0.55078 0.44922,1 1,1c0.04297,0 0.08984,-0.00391 0.13281,-0.01172l1.87891,1.87891c-0.00781,0.04297 -0.01172,0.08984 -0.01172,0.13281c0,0.55078 0.44922,1 1,1c0.04297,0 0.08984,-0.00391 0.13281,-0.01172l1.87891,1.87891c-0.00781,0.04297 -0.01172,0.08984 -0.01172,0.13281c0,0.55078 0.44922,1 1,1c0.04297,0 0.08984,-0.00391 0.13281,-0.01172l1.87891,1.87891c-0.00781,0.04297 -0.01172,0.08984 -0.01172,0.13281c0,0.55078 0.44922,1 1,1c0.04297,0 0.08594,-0.00391 0.12891,-0.01172l1.88281,1.88281c-0.00781,0.04297 -0.01172,0.08594 -0.01172,0.12891c0,0.55078 0.44922,1 1,1c0.04297,0 0.08594,-0.00391 0.12891,-0.01172l1.88281,1.88281c-0.00781,0.04297 -0.01172,0.08594 -0.01172,0.12891c0,0.55078 0.44922,1 1,1c0.04297,0 0.08594,-0.00391 0.12891,-0.01172l1.88281,1.88281c-0.00781,0.04297 -0.01172,0.08594 -0.01172,0.12891c0,0.55078 0.44922,1 1,1c0.04297,0 0.08594,-0.00391 0.12891,-0.01172l0.00781,0.00781c1.11719,1.11719 1.14844,2.87109 0.11328,4.03516c-0.08203,-0.01953 -0.16406,-0.03125 -0.25,-0.03125c-0.55078,0 -1,0.44922 -1,1c0,0.08984 0.01563,0.18359 0.03906,0.26953l-1.76953,1.76563c-0.08594,-0.02344 -0.17969,-0.03516 -0.26953,-0.03516c-0.55078,0 -1,0.44922 -1,1c0,0.08984 0.01563,0.18359 0.03906,0.26953l-1.76953,1.76563c-0.08594,-0.02344 -0.17969,-0.03516 -0.26953,-0.03516c-0.55078,0 -1,0.44922 -1,1c0,0.08984 0.01563,0.18359 0.03906,0.26953l-1.76953,1.76563c-0.08594,-0.02344 -0.17969,-0.03516 -0.26953,-0.03516c-0.55078,0 -1,0.44922 -1,1c0,0.08984 0.01563,0.18359 0.03906,0.26953l-1.76953,1.76563c-0.08594,-0.02344 -0.17969,-0.03516 -0.26953,-0.03516c-0.55078,0 -1,0.44922 -1,1c0,0.08984 0.01563,0.18359 0.03906,0.26953l-1.76953,1.76563c-0.08594,-0.02344 -0.17969,-0.03516 -0.26953,-0.03516c-0.55078,0 -1,0.44922 -1,1c0,0.08984 0.01563,0.18359 0.03906,0.26953l-1.76953,1.76563c-0.08594,-0.02344 -0.17969,-0.03516 -0.26953,-0.03516c-0.55078,0 -1,0.44922 -1,1c0,0.08984 0.01563,0.18359 0.03906,0.26953l-17.86719,17.86719c-1.16016,1.16016 -3.01562,1.16016 -4.17969,0l-19.125,-19.12891c-1.16406,-1.16406 -1.16406,-3.01953 0,-4.17969l17.86328,-17.86328c0.08594,0.02344 0.17969,0.03516 0.26953,0.03516c0.55078,0 1,-0.44922 1,-1c0,-0.08984 -0.01562,-0.18359 -0.03906,-0.26953l1.76953,-1.76562c0.08594,0.02344 0.17969,0.03516 0.26953,0.03516c0.55078,0 1,-0.44922 1,-1c0,-0.08984 -0.01562,-0.18359 -0.03906,-0.26953l1.76953,-1.76562c0.08594,0.02344 0.17969,0.03516 0.26953,0.03516c0.55078,0 1,-0.44922 1,-1c0,-0.08984 -0.01562,-0.18359 -0.03906,-0.26953l1.76953,-1.76562c0.08594,0.02344 0.17969,0.03516 0.26953,0.03516c0.55078,0 1,-0.44922 1,-1c0,-0.08984 -0.01562,-0.18359 -0.03906,-0.26953l1.76953,-1.76562c0.08594,0.02344 0.17969,0.03516 0.26953,0.03516c0.55078,0 1,-0.44922 1,-1c0,-0.08984 -0.01562,-0.18359 -0.03906,-0.26953l1.76953,-1.76562c0.08594,0.02344 0.17969,0.03516 0.26953,0.03516c0.55078,0 1,-0.44922 1,-1c0,-0.08984 -0.01562,-0.18359 -0.03906,-0.26953l1.76953,-1.76562c0.08594,0.02344 0.17969,0.03516 0.26953,0.03516c0.55078,0 1,-0.44922 1,-1c0,-0.08594 -0.01172,-0.16797 -0.03125,-0.25c0.55859,-0.49609 1.25,-0.75781 1.94922,-0.75781zM49,12c-0.55078,0 -1,0.44922 -1,1c0,0.55078 0.44922,1 1,1c0.55078,0 1,-0.44922 1,-1c0,-0.55078 -0.44922,-1 -1,-1zM46,15c-0.55078,0 -1,0.44922 -1,1c0,0.55078 0.44922,1 1,1c0.55078,0 1,-0.44922 1,-1c0,-0.55078 -0.44922,-1 -1,-1zM52,15c-0.55078,0 -1,0.44922 -1,1c0,0.55078 0.44922,1 1,1c0.55078,0 1,-0.44922 1,-1c0,-0.55078 -0.44922,-1 -1,-1zM43,18c-0.55078,0 -1,0.44922 -1,1c0,0.55078 0.44922,1 1,1c0.55078,0 1,-0.44922 1,-1c0,-0.55078 -0.44922,-1 -1,-1zM49,18c-0.55078,0 -1,0.44922 -1,1c0,0.55078 0.44922,1 1,1c0.55078,0 1,-0.44922 1,-1c0,-0.55078 -0.44922,-1 -1,-1zM55,18c-0.55078,0 -1,0.44922 -1,1c0,0.55078 0.44922,1 1,1c0.55078,0 1,-0.44922 1,-1c0,-0.55078 -0.44922,-1 -1,-1zM40,21c-0.55078,0 -1,0.44922 -1,1c0,0.55078 0.44922,1 1,1c0.55078,0 1,-0.44922 1,-1c0,-0.55078 -0.44922,-1 -1,-1zM46,21c-0.55078,0 -1,0.44922 -1,1c0,0.55078 0.44922,1 1,1c0.55078,0 1,-0.44922 1,-1c0,-0.55078 -0.44922,-1 -1,-1zM52,21c-0.55078,0 -1,0.44922 -1,1c0,0.55078 0.44922,1 1,1c0.55078,0 1,-0.44922 1,-1c0,-0.55078 -0.44922,-1 -1,-1zM58,21c-0.55078,0 -1,0.44922 -1,1c0,0.55078 0.44922,1 1,1c0.55078,0 1,-0.44922 1,-1c0,-0.55078 -0.44922,-1 -1,-1zM37,24c-0.55078,0 -1,0.44922 -1,1c0,0.55078 0.44922,1 1,1c0.55078,0 1,-0.44922 1,-1c0,-0.55078 -0.44922,-1 -1,-1zM43,24c-0.55078,0 -1,0.44922 -1,1c0,0.55078 0.44922,1 1,1c0.55078,0 1,-0.44922 1,-1c0,-0.55078 -0.44922,-1 -1,-1zM49,24c-0.55078,0 -1,0.44922 -1,1c0,0.55078 0.44922,1 1,1c0.55078,0 1,-0.44922 1,-1c0,-0.55078 -0.44922,-1 -1,-1zM55,24c-0.55078,0 -1,0.44922 -1,1c0,0.55078 0.44922,1 1,1c0.55078,0 1,-0.44922 1,-1c0,-0.55078 -0.44922,-1 -1,-1zM61,24c-0.55078,0 -1,0.44922 -1,1c0,0.55078 0.44922,1 1,1c0.55078,0 1,-0.44922 1,-1c0,-0.55078 -0.44922,-1 -1,-1zM34,27c-0.55078,0 -1,0.44922 -1,1c0,0.55078 0.44922,1 1,1c0.55078,0 1,-0.44922 1,-1c0,-0.55078 -0.44922,-1 -1,-1zM40,27c-0.55078,0 -1,0.44922 -1,1c0,0.55078 0.44922,1 1,1c0.55078,0 1,-0.44922 1,-1c0,-0.55078 -0.44922,-1 -1,-1zM46,27c-0.55078,0 -1,0.44922 -1,1c0,0.55078 0.44922,1 1,1c0.55078,0 1,-0.44922 1,-1c0,-0.55078 -0.44922,-1 -1,-1zM52,27c-0.55078,0 -1,0.44922 -1,1c0,0.55078 0.44922,1 1,1c0.55078,0 1,-0.44922 1,-1c0,-0.55078 -0.44922,-1 -1,-1zM58,27c-0.55078,0 -1,0.44922 -1,1c0,0.55078 0.44922,1 1,1c0.55078,0 1,-0.44922 1,-1c0,-0.55078 -0.44922,-1 -1,-1zM64,27c-0.55078,0 -1,0.44922 -1,1c0,0.55078 0.44922,1 1,1c0.55078,0 1,-0.44922 1,-1c0,-0.55078 -0.44922,-1 -1,-1zM31,30c-0.55078,0 -1,0.44922 -1,1c0,0.55078 0.44922,1 1,1c0.55078,0 1,-0.44922 1,-1c0,-0.55078 -0.44922,-1 -1,-1zM37,30c-0.55078,0 -1,0.44922 -1,1c0,0.55078 0.44922,1 1,1c0.55078,0 1,-0.44922 1,-1c0,-0.55078 -0.44922,-1 -1,-1zM43,30c-0.55078,0 -1,0.44922 -1,1c0,0.55078 0.44922,1 1,1c0.55078,0 1,-0.44922 1,-1c0,-0.55078 -0.44922,-1 -1,-1zM49,30c-0.55078,0 -1,0.44922 -1,1c0,0.55078 0.44922,1 1,1c0.55078,0 1,-0.44922 1,-1c0,-0.55078 -0.44922,-1 -1,-1zM55,30c-0.55078,0 -1,0.44922 -1,1c0,0.55078 0.44922,1 1,1c0.55078,0 1,-0.44922 1,-1c0,-0.55078 -0.44922,-1 -1,-1zM61,30c-0.55078,0 -1,0.44922 -1,1c0,0.55078 0.44922,1 1,1c0.55078,0 1,-0.44922 1,-1c0,-0.55078 -0.44922,-1 -1,-1zM67,30c-0.55078,0 -1,0.44922 -1,1c0,0.55078 0.44922,1 1,1c0.55078,0 1,-0.44922 1,-1c0,-0.55078 -0.44922,-1 -1,-1zM34,33c-0.55078,0 -1,0.44922 -1,1c0,0.55078 0.44922,1 1,1c0.55078,0 1,-0.44922 1,-1c0,-0.55078 -0.44922,-1 -1,-1zM40,33c-0.55078,0 -1,0.44922 -1,1c0,0.55078 0.44922,1 1,1c0.55078,0 1,-0.44922 1,-1c0,-0.55078 -0.44922,-1 -1,-1zM46,33c-0.55078,0 -1,0.44922 -1,1c0,0.55078 0.44922,1 1,1c0.55078,0 1,-0.44922 1,-1c0,-0.55078 -0.44922,-1 -1,-1zM52,33c-0.55078,0 -1,0.44922 -1,1c0,0.55078 0.44922,1 1,1c0.55078,0 1,-0.44922 1,-1c0,-0.55078 -0.44922,-1 -1,-1zM58,33c-0.55078,0 -1,0.44922 -1,1c0,0.55078 0.44922,1 1,1c0.55078,0 1,-0.44922 1,-1c0,-0.55078 -0.44922,-1 -1,-1zM64,33c-0.55078,0 -1,0.44922 -1,1c0,0.55078 0.44922,1 1,1c0.55078,0 1,-0.44922 1,-1c0,-0.55078 -0.44922,-1 -1,-1zM37,36c-0.55078,0 -1,0.44922 -1,1c0,0.55078 0.44922,1 1,1c0.55078,0 1,-0.44922 1,-1c0,-0.55078 -0.44922,-1 -1,-1zM43,36c-0.55078,0 -1,0.44922 -1,1c0,0.55078 0.44922,1 1,1c0.55078,0 1,-0.44922 1,-1c0,-0.55078 -0.44922,-1 -1,-1zM49,36c-0.55078,0 -1,0.44922 -1,1c0,0.55078 0.44922,1 1,1c0.55078,0 1,-0.44922 1,-1c0,-0.55078 -0.44922,-1 -1,-1zM55,36c-0.55078,0 -1,0.44922 -1,1c0,0.55078 0.44922,1 1,1c0.55078,0 1,-0.44922 1,-1c0,-0.55078 -0.44922,-1 -1,-1zM61,36c-0.55078,0 -1,0.44922 -1,1c0,0.55078 0.44922,1 1,1c0.55078,0 1,-0.44922 1,-1c0,-0.55078 -0.44922,-1 -1,-1zM40,39c-0.55078,0 -1,0.44922 -1,1c0,0.55078 0.44922,1 1,1c0.55078,0 1,-0.44922 1,-1c0,-0.55078 -0.44922,-1 -1,-1zM46,39c-0.55078,0 -1,0.44922 -1,1c0,0.55078 0.44922,1 1,1c0.55078,0 1,-0.44922 1,-1c0,-0.55078 -0.44922,-1 -1,-1zM52,39c-0.55078,0 -1,0.44922 -1,1c0,0.55078 0.44922,1 1,1c0.55078,0 1,-0.44922 1,-1c0,-0.55078 -0.44922,-1 -1,-1zM58,39c-0.55078,0 -1,0.44922 -1,1c0,0.55078 0.44922,1 1,1c0.55078,0 1,-0.44922 1,-1c0,-0.55078 -0.44922,-1 -1,-1zM43,42c-0.55078,0 -1,0.44922 -1,1c0,0.55078 0.44922,1 1,1c0.55078,0 1,-0.44922 1,-1c0,-0.55078 -0.44922,-1 -1,-1zM49,42c-0.55078,0 -1,0.44922 -1,1c0,0.55078 0.44922,1 1,1c0.55078,0 1,-0.44922 1,-1c0,-0.55078 -0.44922,-1 -1,-1zM55,42c-0.55078,0 -1,0.44922 -1,1c0,0.55078 0.44922,1 1,1c0.55078,0 1,-0.44922 1,-1c0,-0.55078 -0.44922,-1 -1,-1zM46,45c-0.55078,0 -1,0.44922 -1,1c0,0.55078 0.44922,1 1,1c0.55078,0 1,-0.44922 1,-1c0,-0.55078 -0.44922,-1 -1,-1zM52,45c-0.55078,0 -1,0.44922 -1,1c0,0.55078 0.44922,1 1,1c0.55078,0 1,-0.44922 1,-1c0,-0.55078 -0.44922,-1 -1,-1zM49,48c-0.55078,0 -1,0.44922 -1,1c0,0.55078 0.44922,1 1,1c0.55078,0 1,-0.44922 1,-1c0,-0.55078 -0.44922,-1 -1,-1z"></path></g></g></svg>