<?xml version="1.0" encoding="UTF-8"?>
<svg version="1.1" xmlns="http://www.w3.org/2000/svg" width="80" height="80">
<path d="M0 0 C2.60888672 1.83251953 2.60888672 1.83251953 5.1796875 4.3828125 C6.1078125 5.30320312 7.0359375 6.22359375 7.9921875 7.171875 C8.46495117 7.65720703 8.93771484 8.14253906 9.42480469 8.64257812 C10.87110964 10.12102319 12.346653 11.56470531 13.828125 13.0078125 C14.74851563 13.9359375 15.66890625 14.8640625 16.6171875 15.8203125 C17.87958252 17.09285889 17.87958252 17.09285889 19.16748047 18.39111328 C21 21 21 21 21.71142578 23.82373047 C20.6108492 28.73742346 17.47488406 31.4894381 14 35 C13.41374847 35.61028046 12.82749695 36.22056091 12.22348022 36.84933472 C10.44226375 38.68846017 8.63759612 40.50119656 6.82421875 42.30859375 C6.17298538 42.96078384 5.52175201 43.61297394 4.8507843 44.28492737 C3.48988465 45.64650136 2.1277462 47.00683824 0.7644043 48.3659668 C-1.32816325 50.45312274 -3.41526824 52.54563632 -5.50195312 54.63867188 C-6.83040819 55.96646705 -8.15917293 57.29395247 -9.48828125 58.62109375 C-10.11221268 59.24704941 -10.7361441 59.87300507 -11.37898254 60.51792908 C-16.73882591 65.848536 -16.73882591 65.848536 -20.80126953 66.33642578 C-24.95619266 65.89943265 -26.23778927 64.5356176 -29.1796875 61.6171875 C-30.1078125 60.69679687 -31.0359375 59.77640625 -31.9921875 58.828125 C-32.46495117 58.34279297 -32.93771484 57.85746094 -33.42480469 57.35742188 C-34.87110964 55.87897681 -36.346653 54.43529469 -37.828125 52.9921875 C-39.20871094 51.6 -39.20871094 51.6 -40.6171875 50.1796875 C-41.45878418 49.33132324 -42.30038086 48.48295898 -43.16748047 47.60888672 C-45 45 -45 45 -45.71142578 42.17626953 C-44.6108492 37.26257654 -41.47488406 34.5105619 -38 31 C-37.41374847 30.38971954 -36.82749695 29.77943909 -36.22348022 29.15066528 C-34.44226375 27.31153983 -32.63759612 25.49880344 -30.82421875 23.69140625 C-30.17298538 23.03921616 -29.52175201 22.38702606 -28.8507843 21.71507263 C-27.48988465 20.35349864 -26.1277462 18.99316176 -24.7644043 17.6340332 C-22.67183675 15.54687726 -20.58473176 13.45436368 -18.49804688 11.36132812 C-17.16959181 10.03353295 -15.84082707 8.70604753 -14.51171875 7.37890625 C-13.88778732 6.75295059 -13.2638559 6.12699493 -12.62101746 5.48207092 C-8.2573482 1.14220426 -6.26733189 -0.65916527 0 0 Z M-8.86645508 6.31713867 C-9.61014847 7.04176804 -10.35384186 7.7663974 -11.12007141 8.51298523 C-11.91189316 9.30662979 -12.7037149 10.10027435 -13.51953125 10.91796875 C-14.3374968 11.72736404 -15.15546234 12.53675934 -15.99821472 13.37068176 C-17.72550975 15.08648302 -19.44757622 16.80756141 -21.16479492 18.53344727 C-23.80218915 21.17716444 -26.46508671 23.79314143 -29.13085938 26.40820312 C-30.80370361 28.07650189 -32.474982 29.74637254 -34.14453125 31.41796875 C-34.94647415 32.20149216 -35.74841705 32.98501556 -36.57466125 33.7922821 C-37.66656013 34.90286736 -37.66656013 34.90286736 -38.78051758 36.03588867 C-39.7517028 37.00518562 -39.7517028 37.00518562 -40.74250793 37.99406433 C-42.26068408 39.97579411 -42.26068408 39.97579411 -41.80662537 42.60801697 C-40.15396239 47.50885688 -35.84700427 50.80600978 -32.25 54.375 C-31.43789063 55.21933594 -30.62578125 56.06367187 -29.7890625 56.93359375 C-28.99757813 57.72636719 -28.20609375 58.51914063 -27.390625 59.3359375 C-26.66907227 60.06345215 -25.94751953 60.7909668 -25.20410156 61.54052734 C-23.10511288 63.25781049 -23.10511288 63.25781049 -20.60525513 62.79989624 C-17.63443925 61.88776121 -16.31361951 60.83080486 -14.11181641 58.66113281 C-13.3882193 57.95659973 -12.66462219 57.25206665 -11.9190979 56.52618408 C-10.77191788 55.37626984 -10.77191788 55.37626984 -9.6015625 54.203125 C-8.80720795 53.4173407 -8.01285339 52.6315564 -7.19442749 51.82196045 C-5.52019575 50.15920607 -3.8511694 48.49119626 -2.18701172 46.81835938 C0.36909006 44.25592459 2.95070222 41.72129774 5.53515625 39.1875 C7.15786981 37.56933107 8.77901866 35.94959119 10.3984375 34.328125 C11.17536957 33.56961243 11.95230164 32.81109985 12.7527771 32.02960205 C13.45746124 31.31246033 14.16214539 30.5953186 14.88818359 29.85644531 C15.51485931 29.23102844 16.14153503 28.60561157 16.78720093 27.96124268 C18.25809703 26.01324388 18.25809703 26.01324388 17.80088806 23.39772034 C16.788996 20.36829052 15.35285865 18.83562512 13.10546875 16.57421875 C11.91920898 15.38022461 11.91920898 15.38022461 10.70898438 14.16210938 C9.87689453 13.34548828 9.04480469 12.52886719 8.1875 11.6875 C7.36701172 10.85154297 6.54652344 10.01558594 5.70117188 9.15429688 C4.50911133 7.9699707 4.50911133 7.9699707 3.29296875 6.76171875 C2.20278442 5.678302 2.20278442 5.678302 1.09057617 4.57299805 C-3.08116551 1.43408275 -5.61232953 3.10904391 -8.86645508 6.31713867 Z " fill="#000000" transform="translate(52,7)"/>
<path d="M0 0 C0.66 0 1.32 0 2 0 C2 0.66 2 1.32 2 2 C1.34 2 0.68 2 0 2 C0 1.34 0 0.68 0 0 Z " fill="#000000" transform="translate(48,48)"/>
<path d="M0 0 C0.66 0 1.32 0 2 0 C2 0.66 2 1.32 2 2 C1.34 2 0.68 2 0 2 C0 1.34 0 0.68 0 0 Z " fill="#000000" transform="translate(51,45)"/>
<path d="M0 0 C0.66 0 1.32 0 2 0 C2 0.66 2 1.32 2 2 C1.34 2 0.68 2 0 2 C0 1.34 0 0.68 0 0 Z " fill="#000000" transform="translate(45,45)"/>
<path d="M0 0 C0.66 0 1.32 0 2 0 C2 0.66 2 1.32 2 2 C1.34 2 0.68 2 0 2 C0 1.34 0 0.68 0 0 Z " fill="#000000" transform="translate(54,42)"/>
<path d="M0 0 C0.66 0 1.32 0 2 0 C2 0.66 2 1.32 2 2 C1.34 2 0.68 2 0 2 C0 1.34 0 0.68 0 0 Z " fill="#000000" transform="translate(48,42)"/>
<path d="M0 0 C0.66 0 1.32 0 2 0 C2 0.66 2 1.32 2 2 C1.34 2 0.68 2 0 2 C0 1.34 0 0.68 0 0 Z " fill="#000000" transform="translate(42,42)"/>
<path d="M0 0 C0.66 0 1.32 0 2 0 C2 0.66 2 1.32 2 2 C1.34 2 0.68 2 0 2 C0 1.34 0 0.68 0 0 Z " fill="#000000" transform="translate(57,39)"/>
<path d="M0 0 C0.66 0 1.32 0 2 0 C2 0.66 2 1.32 2 2 C1.34 2 0.68 2 0 2 C0 1.34 0 0.68 0 0 Z " fill="#000000" transform="translate(51,39)"/>
<path d="M0 0 C0.66 0 1.32 0 2 0 C2 0.66 2 1.32 2 2 C1.34 2 0.68 2 0 2 C0 1.34 0 0.68 0 0 Z " fill="#000000" transform="translate(45,39)"/>
<path d="M0 0 C0.66 0 1.32 0 2 0 C2 0.66 2 1.32 2 2 C1.34 2 0.68 2 0 2 C0 1.34 0 0.68 0 0 Z " fill="#000000" transform="translate(39,39)"/>
<path d="M0 0 C0.66 0 1.32 0 2 0 C2 0.66 2 1.32 2 2 C1.34 2 0.68 2 0 2 C0 1.34 0 0.68 0 0 Z " fill="#000000" transform="translate(60,36)"/>
<path d="M0 0 C0.66 0 1.32 0 2 0 C2 0.66 2 1.32 2 2 C1.34 2 0.68 2 0 2 C0 1.34 0 0.68 0 0 Z " fill="#000000" transform="translate(54,36)"/>
<path d="M0 0 C0.66 0 1.32 0 2 0 C2 0.66 2 1.32 2 2 C1.34 2 0.68 2 0 2 C0 1.34 0 0.68 0 0 Z " fill="#000000" transform="translate(48,36)"/>
<path d="M0 0 C0.66 0 1.32 0 2 0 C2 0.66 2 1.32 2 2 C1.34 2 0.68 2 0 2 C0 1.34 0 0.68 0 0 Z " fill="#000000" transform="translate(42,36)"/>
<path d="M0 0 C0.66 0 1.32 0 2 0 C2 0.66 2 1.32 2 2 C1.34 2 0.68 2 0 2 C0 1.34 0 0.68 0 0 Z " fill="#000000" transform="translate(36,36)"/>
<path d="M0 0 C0.66 0 1.32 0 2 0 C2 0.66 2 1.32 2 2 C1.34 2 0.68 2 0 2 C0 1.34 0 0.68 0 0 Z " fill="#000000" transform="translate(63,33)"/>
<path d="M0 0 C0.66 0 1.32 0 2 0 C2 0.66 2 1.32 2 2 C1.34 2 0.68 2 0 2 C0 1.34 0 0.68 0 0 Z " fill="#000000" transform="translate(57,33)"/>
<path d="M0 0 C0.66 0 1.32 0 2 0 C2 0.66 2 1.32 2 2 C1.34 2 0.68 2 0 2 C0 1.34 0 0.68 0 0 Z " fill="#000000" transform="translate(51,33)"/>
<path d="M0 0 C0.66 0 1.32 0 2 0 C2 0.66 2 1.32 2 2 C1.34 2 0.68 2 0 2 C0 1.34 0 0.68 0 0 Z " fill="#000000" transform="translate(45,33)"/>
<path d="M0 0 C0.66 0 1.32 0 2 0 C2 0.66 2 1.32 2 2 C1.34 2 0.68 2 0 2 C0 1.34 0 0.68 0 0 Z " fill="#000000" transform="translate(39,33)"/>
<path d="M0 0 C0.66 0 1.32 0 2 0 C2 0.66 2 1.32 2 2 C1.34 2 0.68 2 0 2 C0 1.34 0 0.68 0 0 Z " fill="#000000" transform="translate(33,33)"/>
<path d="M0 0 C0.66 0 1.32 0 2 0 C2 0.66 2 1.32 2 2 C1.34 2 0.68 2 0 2 C0 1.34 0 0.68 0 0 Z " fill="#000000" transform="translate(66,30)"/>
<path d="M0 0 C0.66 0 1.32 0 2 0 C2 0.66 2 1.32 2 2 C1.34 2 0.68 2 0 2 C0 1.34 0 0.68 0 0 Z " fill="#000000" transform="translate(60,30)"/>
<path d="M0 0 C0.66 0 1.32 0 2 0 C2 0.66 2 1.32 2 2 C1.34 2 0.68 2 0 2 C0 1.34 0 0.68 0 0 Z " fill="#000000" transform="translate(54,30)"/>
<path d="M0 0 C0.66 0 1.32 0 2 0 C2 0.66 2 1.32 2 2 C1.34 2 0.68 2 0 2 C0 1.34 0 0.68 0 0 Z " fill="#000000" transform="translate(48,30)"/>
<path d="M0 0 C0.66 0 1.32 0 2 0 C2 0.66 2 1.32 2 2 C1.34 2 0.68 2 0 2 C0 1.34 0 0.68 0 0 Z " fill="#000000" transform="translate(42,30)"/>
<path d="M0 0 C0.66 0 1.32 0 2 0 C2 0.66 2 1.32 2 2 C1.34 2 0.68 2 0 2 C0 1.34 0 0.68 0 0 Z " fill="#000000" transform="translate(36,30)"/>
<path d="M0 0 C0.66 0 1.32 0 2 0 C2 0.66 2 1.32 2 2 C1.34 2 0.68 2 0 2 C0 1.34 0 0.68 0 0 Z " fill="#000000" transform="translate(30,30)"/>
<path d="M0 0 C0.66 0 1.32 0 2 0 C2 0.66 2 1.32 2 2 C1.34 2 0.68 2 0 2 C0 1.34 0 0.68 0 0 Z " fill="#000000" transform="translate(63,27)"/>
<path d="M0 0 C0.66 0 1.32 0 2 0 C2 0.66 2 1.32 2 2 C1.34 2 0.68 2 0 2 C0 1.34 0 0.68 0 0 Z " fill="#000000" transform="translate(57,27)"/>
<path d="M0 0 C0.66 0 1.32 0 2 0 C2 0.66 2 1.32 2 2 C1.34 2 0.68 2 0 2 C0 1.34 0 0.68 0 0 Z " fill="#000000" transform="translate(51,27)"/>
<path d="M0 0 C0.66 0 1.32 0 2 0 C2 0.66 2 1.32 2 2 C1.34 2 0.68 2 0 2 C0 1.34 0 0.68 0 0 Z " fill="#000000" transform="translate(45,27)"/>
<path d="M0 0 C0.66 0 1.32 0 2 0 C2 0.66 2 1.32 2 2 C1.34 2 0.68 2 0 2 C0 1.34 0 0.68 0 0 Z " fill="#000000" transform="translate(39,27)"/>
<path d="M0 0 C0.66 0 1.32 0 2 0 C2 0.66 2 1.32 2 2 C1.34 2 0.68 2 0 2 C0 1.34 0 0.68 0 0 Z " fill="#000000" transform="translate(33,27)"/>
<path d="M0 0 C0.66 0 1.32 0 2 0 C2 0.66 2 1.32 2 2 C1.34 2 0.68 2 0 2 C0 1.34 0 0.68 0 0 Z " fill="#000000" transform="translate(60,24)"/>
<path d="M0 0 C0.66 0 1.32 0 2 0 C2 0.66 2 1.32 2 2 C1.34 2 0.68 2 0 2 C0 1.34 0 0.68 0 0 Z " fill="#000000" transform="translate(54,24)"/>
<path d="M0 0 C0.66 0 1.32 0 2 0 C2 0.66 2 1.32 2 2 C1.34 2 0.68 2 0 2 C0 1.34 0 0.68 0 0 Z " fill="#000000" transform="translate(48,24)"/>
<path d="M0 0 C0.66 0 1.32 0 2 0 C2 0.66 2 1.32 2 2 C1.34 2 0.68 2 0 2 C0 1.34 0 0.68 0 0 Z " fill="#000000" transform="translate(42,24)"/>
<path d="M0 0 C0.66 0 1.32 0 2 0 C2 0.66 2 1.32 2 2 C1.34 2 0.68 2 0 2 C0 1.34 0 0.68 0 0 Z " fill="#000000" transform="translate(36,24)"/>
<path d="M0 0 C0.66 0 1.32 0 2 0 C2 0.66 2 1.32 2 2 C1.34 2 0.68 2 0 2 C0 1.34 0 0.68 0 0 Z " fill="#000000" transform="translate(57,21)"/>
<path d="M0 0 C0.66 0 1.32 0 2 0 C2 0.66 2 1.32 2 2 C1.34 2 0.68 2 0 2 C0 1.34 0 0.68 0 0 Z " fill="#000000" transform="translate(51,21)"/>
<path d="M0 0 C0.66 0 1.32 0 2 0 C2 0.66 2 1.32 2 2 C1.34 2 0.68 2 0 2 C0 1.34 0 0.68 0 0 Z " fill="#000000" transform="translate(45,21)"/>
<path d="M0 0 C0.66 0 1.32 0 2 0 C2 0.66 2 1.32 2 2 C1.34 2 0.68 2 0 2 C0 1.34 0 0.68 0 0 Z " fill="#000000" transform="translate(39,21)"/>
<path d="M0 0 C0.66 0 1.32 0 2 0 C2 0.66 2 1.32 2 2 C1.34 2 0.68 2 0 2 C0 1.34 0 0.68 0 0 Z " fill="#000000" transform="translate(54,18)"/>
<path d="M0 0 C0.66 0 1.32 0 2 0 C2 0.66 2 1.32 2 2 C1.34 2 0.68 2 0 2 C0 1.34 0 0.68 0 0 Z " fill="#000000" transform="translate(48,18)"/>
<path d="M0 0 C0.66 0 1.32 0 2 0 C2 0.66 2 1.32 2 2 C1.34 2 0.68 2 0 2 C0 1.34 0 0.68 0 0 Z " fill="#000000" transform="translate(42,18)"/>
<path d="M0 0 C0.66 0 1.32 0 2 0 C2 0.66 2 1.32 2 2 C1.34 2 0.68 2 0 2 C0 1.34 0 0.68 0 0 Z " fill="#000000" transform="translate(51,15)"/>
<path d="M0 0 C0.66 0 1.32 0 2 0 C2 0.66 2 1.32 2 2 C1.34 2 0.68 2 0 2 C0 1.34 0 0.68 0 0 Z " fill="#000000" transform="translate(45,15)"/>
<path d="M0 0 C0.66 0 1.32 0 2 0 C2 0.66 2 1.32 2 2 C1.34 2 0.68 2 0 2 C0 1.34 0 0.68 0 0 Z " fill="#000000" transform="translate(48,12)"/>
</svg>
