<svg xmlns="http://www.w3.org/2000/svg"  viewBox="0 0 80 80" width="80px" height="80px"><path d="M 29.240234 10 C 29.062654 10 28.90454 10.05886 28.759766 10.140625 A 1.0001 1.0001 0 0 0 28.238281 10.001953 C 25.058133 10.001953 21.849895 10.654159 19.34375 12.240234 C 16.837605 13.82631 15.078125 16.455991 15.078125 19.978516 L 15.078125 31.521484 C 15.078125 33.033657 14.470602 34.541072 13.585938 35.744141 C 12.701272 36.94721 11.527967 37.817393 10.652344 38.099609 A 1.0001 1.0001 0 0 0 10.648438 38.101562 C 9.7245819 38.402772 9 39.277492 9 40.332031 L 9 40.787109 C 9 41.76357 9.6678683 42.611606 10.568359 42.873047 C 11.435681 43.124969 12.635611 43.986987 13.542969 45.199219 C 14.450326 46.411451 15.080078 47.941534 15.080078 49.478516 L 15.080078 61.021484 C 15.080078 64.543957 16.83771 67.175623 19.34375 68.761719 C 21.84979 70.347815 25.057656 71 28.238281 71 A 1.0001 1.0001 0 1 0 28.238281 69 C 25.338906 69 22.467523 68.369967 20.414062 67.070312 C 18.360603 65.770659 17.080078 63.912012 17.080078 61.021484 L 17.080078 49.478516 C 17.080078 47.408497 16.266174 45.498518 15.144531 44 C 14.022889 42.501482 12.607632 41.383203 11.126953 40.953125 C 11.040251 40.928027 11 40.890072 11 40.787109 L 11 40.332031 C 11 40.16857 11.08938 40.060698 11.269531 40.001953 C 12.719468 39.533409 14.104677 38.415514 15.197266 36.929688 C 16.29085 35.442507 17.078125 33.558312 17.078125 31.521484 L 17.078125 19.978516 C 17.078125 17.08804 18.360457 15.229361 20.414062 13.929688 C 22.467668 12.630012 25.339429 12.001953 28.238281 12.001953 A 1.0001 1.0001 0 0 0 28.761719 11.861328 C 28.905942 11.942264 29.063627 12 29.240234 12 C 29.790234 12 30.240234 11.55 30.240234 11 C 30.240234 10.45 29.790234 10 29.240234 10 z M 52 10 A 1.0001 1.0001 0 1 0 52 12 C 54.899375 12 57.770759 12.630034 59.824219 13.929688 C 61.877679 15.22934 63.158203 17.087988 63.158203 19.978516 L 63.158203 31.521484 C 63.158203 33.558312 63.947431 35.440553 65.041016 36.927734 C 66.1346 38.414915 67.52128 39.53417 68.972656 40.001953 L 68.96875 40.001953 C 69.148901 40.060703 69.238281 40.166617 69.238281 40.330078 L 69.238281 40.785156 C 69.238281 40.888119 69.199231 40.925728 69.111328 40.951172 C 67.630649 41.38125 66.215393 42.499529 65.09375 43.998047 C 63.972107 45.496565 63.158203 47.406545 63.158203 49.476562 L 63.158203 61.019531 C 63.158654 63.911136 61.877508 65.770471 59.824219 67.070312 C 57.770924 68.370155 54.899375 69 52 69 A 1.0001 1.0001 0 0 0 51.478516 69.138672 C 51.334301 69.057736 51.176287 69 51 69 C 50.45 69 50 69.45 50 70 C 50 70.55 50.45 71 51 71 C 51.176287 71 51.334301 70.942264 51.478516 70.861328 A 1.0001 1.0001 0 0 0 52 71 C 55.180625 71 58.38857 70.346173 60.894531 68.759766 C 63.400492 67.173358 65.158752 64.542926 65.158203 61.019531 L 65.158203 49.476562 C 65.158203 47.939582 65.786002 46.409498 66.693359 45.197266 C 67.600717 43.985034 68.800648 43.123016 69.667969 42.871094 C 70.56807 42.610538 71.238281 41.762193 71.238281 40.785156 L 71.238281 40.330078 C 71.238281 39.275539 70.513693 38.400865 69.589844 38.099609 A 1.0001 1.0001 0 0 0 69.585938 38.099609 C 68.710307 37.817393 67.537009 36.94721 66.652344 35.744141 C 65.767678 34.541072 65.158203 33.033657 65.158203 31.521484 L 65.158203 19.978516 C 65.158203 16.456043 63.400571 13.824377 60.894531 12.238281 C 58.388491 10.652185 55.180625 10 52 10 z M 51.939453 12.720703 C 51.550625 12.769781 51.215125 13.046172 51.109375 13.451172 C 50.959375 13.980172 51.270781 14.530688 51.800781 14.679688 C 51.890781 14.699688 51.978359 14.710938 52.068359 14.710938 C 52.508359 14.710937 52.909297 14.420469 53.029297 13.980469 C 53.179297 13.451469 52.869844 12.900953 52.339844 12.751953 C 52.204844 12.714203 52.069062 12.704344 51.939453 12.720703 z M 27.884766 12.820312 C 27.754297 12.813594 27.620234 12.833359 27.490234 12.880859 C 26.969234 13.069859 26.709437 13.639156 26.898438 14.160156 C 27.039438 14.569156 27.430844 14.819313 27.839844 14.820312 C 27.950844 14.820313 28.059687 14.799766 28.179688 14.759766 C 28.700688 14.569766 28.959297 13.991469 28.779297 13.480469 C 28.636797 13.090469 28.276172 12.840469 27.884766 12.820312 z M 54.976562 15.164062 C 54.847344 15.183438 54.719609 15.228281 54.599609 15.300781 C 54.129609 15.580781 53.979766 16.189922 54.259766 16.669922 L 54.269531 16.669922 C 54.449531 16.978922 54.779141 17.149391 55.119141 17.150391 C 55.299141 17.150391 55.480625 17.099766 55.640625 17.009766 C 56.110625 16.719766 56.260469 16.109859 55.980469 15.630859 C 55.762969 15.278359 55.364219 15.105937 54.976562 15.164062 z M 25.033203 15.457031 C 24.646531 15.424031 24.253594 15.622734 24.058594 15.990234 C 23.798594 16.470234 23.989516 17.079844 24.478516 17.339844 C 24.629516 17.419844 24.790453 17.449219 24.939453 17.449219 C 25.300453 17.449219 25.649078 17.259922 25.830078 16.919922 C 26.090078 16.438922 25.899156 15.829359 25.410156 15.568359 C 25.289906 15.503359 25.162094 15.468031 25.033203 15.457031 z M 56.130859 18.970703 C 55.580859 18.970703 55.130859 19.420703 55.130859 19.970703 C 55.130859 20.520703 55.580859 20.970703 56.130859 20.970703 C 56.680859 20.970703 57.130859 20.520703 57.130859 19.970703 C 57.130859 19.420703 56.680859 18.970703 56.130859 18.970703 z M 24.109375 19.318359 C 23.559375 19.318359 23.109375 19.768359 23.109375 20.318359 C 23.109375 20.869359 23.560375 21.318359 24.109375 21.318359 C 24.660375 21.318359 25.109375 20.869359 25.109375 20.318359 C 25.109375 19.768359 24.660375 19.318359 24.109375 19.318359 z M 56.130859 22.978516 C 55.580859 22.978516 55.130859 23.428516 55.130859 23.978516 C 55.130859 24.539516 55.580859 24.978516 56.130859 24.978516 C 56.680859 24.978516 57.130859 24.539516 57.130859 23.978516 C 57.130859 23.428516 56.680859 22.978516 56.130859 22.978516 z M 24.109375 23.330078 C 23.559375 23.330078 23.109375 23.780078 23.109375 24.330078 C 23.109375 24.890078 23.560375 25.330078 24.109375 25.330078 C 24.660375 25.330078 25.109375 24.890078 25.109375 24.330078 C 25.109375 23.780078 24.660375 23.330078 24.109375 23.330078 z M 56.130859 26.990234 C 55.580859 26.990234 55.130859 27.439234 55.130859 27.990234 C 55.130859 28.540234 55.580859 28.990234 56.130859 28.990234 C 56.680859 28.990234 57.130859 28.540234 57.130859 27.990234 C 57.130859 27.439234 56.680859 26.990234 56.130859 26.990234 z M 24.109375 27.339844 C 23.559375 27.339844 23.109375 27.789844 23.109375 28.339844 C 23.109375 28.889844 23.560375 29.339844 24.109375 29.339844 C 24.660375 29.339844 25.109375 28.889844 25.109375 28.339844 C 25.109375 27.789844 24.660375 27.339844 24.109375 27.339844 z M 24.050781 30.986328 A 1.0001 1.0001 0 0 0 23.09375 31.925781 C 22.973144 33.565423 22.109764 35.2134 20.947266 36.591797 C 19.784768 37.970194 18.326765 39.06611 17.248047 39.605469 A 1.0001 1.0001 0 0 0 17.248047 41.394531 C 18.370873 41.955725 19.901997 43.121779 21.087891 44.580078 C 22.273784 46.038377 23.109375 47.766755 23.109375 49.478516 A 1.0001 1.0001 0 1 0 25.109375 49.478516 C 25.109375 47.134276 24.019981 45.01456 22.640625 43.318359 C 21.677165 42.133588 20.585701 41.238342 19.513672 40.503906 C 20.524348 39.810861 21.550122 38.977042 22.474609 37.880859 C 23.822611 36.282506 24.924496 34.295577 25.087891 32.074219 A 1.0001 1.0001 0 0 0 24.050781 30.986328 z M 56.158203 30.986328 A 1.0001 1.0001 0 0 0 55.150391 32.058594 C 55.150606 32.062039 55.148187 32.064908 55.148438 32.068359 C 55.148598 32.070487 55.150217 32.074048 55.150391 32.076172 C 55.314285 34.296744 56.416064 36.282974 57.763672 37.880859 C 58.688317 38.977229 59.715726 39.81082 60.726562 40.503906 C 59.654448 41.23859 58.563211 42.133414 57.599609 43.318359 C 56.220286 45.01452 55.130859 47.134698 55.130859 49.478516 A 1.0001 1.0001 0 1 0 57.130859 49.478516 C 57.130859 47.767333 57.964464 46.038417 59.150391 44.580078 C 60.336317 43.121739 61.867195 41.95627 62.990234 41.394531 A 1.0001 1.0001 0 0 0 62.990234 39.605469 C 61.911516 39.06611 60.455467 37.970194 59.292969 36.591797 C 58.134612 35.218311 57.271943 33.577215 57.146484 31.943359 C 57.146206 31.938597 57.148785 31.934461 57.148438 31.929688 C 57.147804 31.922594 57.143348 31.917201 57.142578 31.910156 A 1.0001 1.0001 0 0 0 56.158203 30.986328 z M 56.130859 51.660156 C 55.580859 51.660156 55.130859 52.099156 55.130859 52.660156 C 55.130859 53.210156 55.580859 53.660156 56.130859 53.660156 C 56.680859 53.660156 57.130859 53.210156 57.130859 52.660156 C 57.130859 52.099156 56.680859 51.660156 56.130859 51.660156 z M 24.109375 52.490234 C 23.559375 52.490234 23.109375 52.939234 23.109375 53.490234 C 23.109375 54.040234 23.560375 54.490234 24.109375 54.490234 C 24.660375 54.490234 25.109375 54.040234 25.109375 53.490234 C 25.109375 52.939234 24.660375 52.490234 24.109375 52.490234 z M 56.130859 55.669922 C 55.580859 55.669922 55.130859 56.108922 55.130859 56.669922 C 55.130859 57.219922 55.580859 57.669922 56.130859 57.669922 C 56.680859 57.669922 57.130859 57.219922 57.130859 56.669922 C 57.130859 56.108922 56.680859 55.669922 56.130859 55.669922 z M 24.109375 56.5 C 23.559375 56.5 23.109375 56.939 23.109375 57.5 C 23.109375 58.05 23.560375 58.490234 24.109375 58.490234 C 24.660375 58.490234 25.109375 58.05 25.109375 57.5 C 25.109375 56.939 24.660375 56.5 24.109375 56.5 z M 56.130859 59.679688 C 55.580859 59.679688 55.130859 60.119687 55.130859 60.679688 C 55.130859 61.228688 55.580859 61.679688 56.130859 61.679688 C 56.680859 61.679688 57.130859 61.229687 57.130859 60.679688 C 57.130859 60.119687 56.680859 59.679688 56.130859 59.679688 z M 24.058594 60.509766 C 23.509594 60.539766 23.089141 61.010547 23.119141 61.560547 C 23.148141 62.100547 23.599141 62.509766 24.119141 62.509766 L 24.179688 62.509766 C 24.728688 62.469766 25.148141 61.999219 25.119141 61.449219 C 25.088141 60.899219 24.619594 60.479766 24.058594 60.509766 z M 55.378906 63.546875 C 54.991109 63.512938 54.605156 63.711062 54.410156 64.070312 C 54.149156 64.560313 54.329359 65.169687 54.818359 65.429688 C 54.969359 65.509688 55.129062 65.540016 55.289062 65.541016 C 55.649063 65.541016 55.999688 65.351719 56.179688 65.011719 C 56.439688 64.531719 56.249766 63.920156 55.759766 63.660156 C 55.637016 63.594906 55.508172 63.558187 55.378906 63.546875 z M 25.542969 64.261719 C 25.291719 64.217969 25.023828 64.269688 24.798828 64.429688 C 24.348828 64.749688 24.239359 65.380078 24.568359 65.830078 C 24.759359 66.100078 25.069859 66.25 25.380859 66.25 C 25.580859 66.25 25.780938 66.190547 25.960938 66.060547 C 26.410938 65.740547 26.509453 65.108922 26.189453 64.669922 C 26.029453 64.444922 25.794219 64.305469 25.542969 64.261719 z M 52.453125 66.181641 C 52.323547 66.175 52.190797 66.192734 52.060547 66.240234 C 51.540547 66.429234 51.270938 66.999531 51.460938 67.519531 C 51.609937 67.929531 51.989438 68.180641 52.398438 68.181641 C 52.519438 68.181641 52.63 68.161094 52.75 68.121094 C 53.27 67.931094 53.529844 67.361797 53.339844 66.841797 C 53.197344 66.451047 52.841859 66.201562 52.453125 66.181641 z M 28.789062 66.398438 C 28.239062 66.308438 27.728437 66.688516 27.648438 67.228516 C 27.558437 67.779516 27.938516 68.289141 28.478516 68.369141 C 28.529516 68.379141 28.590625 68.390625 28.640625 68.390625 C 29.120625 68.390625 29.549141 68.029062 29.619141 67.539062 C 29.709141 66.989063 29.329062 66.478437 28.789062 66.398438 z"/></svg>