<svg xmlns="http://www.w3.org/2000/svg"  viewBox="0 0 80 80" width="80px" height="80px"><path d="M 3.9902344 33 A 1.0001 1.0001 0 1 0 3.9902344 35 C 5.1562899 35 5.9579317 35.524969 6.7832031 36.515625 C 7.6084746 37.506281 8.344 38.947266 9.09375 40.447266 C 9.8435 41.947266 10.607146 43.506281 11.65625 44.765625 C 12.703832 46.023141 14.1513 46.997176 15.980469 47 C 15.982463 47.000002 15.984333 47 15.986328 47 A 1.0001 1.0001 0 1 0 15.986328 45 C 14.820273 45 14.018631 44.475031 13.193359 43.484375 C 12.368088 42.493719 11.632562 41.052734 10.882812 39.552734 C 10.133062 38.052734 9.3694161 36.493719 8.3203125 35.234375 C 7.2712089 33.975031 5.8231789 33 3.9902344 33 z M 76 33 C 74.166083 33 72.717938 33.975062 71.667969 35.234375 C 70.617999 36.493688 69.853948 38.052744 69.103516 39.552734 C 68.353083 41.052724 67.615167 42.493694 66.789062 43.484375 C 65.962958 44.475056 65.160076 45 63.992188 45 A 1.0001 1.0001 0 1 0 63.992188 47 C 65.826299 47 67.276057 46.024944 68.326172 44.765625 C 69.376286 43.506306 70.140183 41.947276 70.890625 40.447266 C 71.641067 38.947256 72.377126 37.506312 73.203125 36.515625 C 74.029124 35.524938 74.832417 35 76 35 A 1.0001 1.0001 0 1 0 76 33 z M 50.101562 33.423828 C 49.9725 33.432516 49.843203 33.466797 49.720703 33.529297 C 49.220703 33.779297 49.019531 34.379141 49.269531 34.869141 C 49.449531 35.219141 49.800875 35.419922 50.171875 35.419922 C 50.320875 35.419922 50.469375 35.388359 50.609375 35.318359 C 51.109375 35.068359 51.310547 34.468516 51.060547 33.978516 C 50.873047 33.603516 50.48875 33.397766 50.101562 33.423828 z M 26.021484 33.457031 C 25.89225 33.468031 25.763125 33.503359 25.640625 33.568359 C 25.150625 33.818359 24.960703 34.429922 25.220703 34.919922 C 25.390703 35.259922 25.739609 35.450938 26.099609 35.460938 C 26.259609 35.460938 26.420547 35.419844 26.560547 35.339844 C 27.051547 35.089844 27.240234 34.479234 26.990234 33.990234 C 26.794484 33.622734 26.409187 33.424031 26.021484 33.457031 z M 30.019531 33.490234 C 29.631875 33.449922 29.245781 33.642266 29.050781 34.009766 C 28.780781 34.499766 28.959219 35.098141 29.449219 35.369141 C 29.599219 35.449141 29.759922 35.489234 29.919922 35.490234 C 30.279922 35.490234 30.620781 35.300938 30.800781 34.960938 C 31.070781 34.479937 30.890391 33.870375 30.400391 33.609375 C 30.277891 33.541875 30.14875 33.503672 30.019531 33.490234 z M 54.097656 33.529297 C 53.709953 33.486125 53.321641 33.67125 53.119141 34.03125 C 52.849141 34.51025 53.02 35.120625 53.5 35.390625 C 53.649 35.479625 53.819234 35.519531 53.990234 35.519531 C 54.339234 35.519531 54.670375 35.339766 54.859375 35.009766 C 55.129375 34.530766 54.958516 33.921391 54.478516 33.650391 C 54.356266 33.583141 54.226891 33.543688 54.097656 33.529297 z M 47.587891 36.287109 C 47.202109 36.231094 46.799844 36.400516 46.589844 36.759766 C 46.299844 37.229766 46.449922 37.840859 46.919922 38.130859 C 47.079922 38.229859 47.260453 38.269531 47.439453 38.269531 C 47.780453 38.269531 48.108063 38.100781 48.289062 37.800781 C 48.579062 37.319781 48.430937 36.709922 47.960938 36.419922 C 47.843438 36.349922 47.716484 36.305781 47.587891 36.287109 z M 23.546875 36.341797 C 23.161094 36.284375 22.760781 36.459109 22.550781 36.818359 C 22.260781 37.289359 22.411625 37.899453 22.890625 38.189453 C 23.050625 38.290453 23.229391 38.329125 23.400391 38.328125 C 23.740391 38.328125 24.069766 38.160609 24.259766 37.849609 C 24.539766 37.379609 24.389922 36.758516 23.919922 36.478516 C 23.802422 36.406016 23.675469 36.360937 23.546875 36.341797 z M 32.462891 36.398438 C 32.334297 36.416328 32.207344 36.459297 32.089844 36.529297 C 31.608844 36.808297 31.460234 37.428438 31.740234 37.898438 C 31.930234 38.219437 32.260609 38.390625 32.599609 38.390625 C 32.780609 38.390625 32.950375 38.35 33.109375 38.25 C 33.590375 37.97 33.740938 37.350859 33.460938 36.880859 C 33.250938 36.520109 32.848672 36.344766 32.462891 36.398438 z M 56.503906 36.458984 C 56.375312 36.476797 56.248359 36.519844 56.130859 36.589844 C 55.649859 36.869844 55.499297 37.480938 55.779297 37.960938 C 55.969297 38.270938 56.299672 38.450172 56.638672 38.451172 C 56.808672 38.451172 56.989438 38.400547 57.148438 38.310547 C 57.629438 38.031547 57.78 37.410453 57.5 36.939453 C 57.29 36.579453 56.889688 36.405547 56.503906 36.458984 z M 45.650391 39.822266 C 45.262922 39.793437 44.876953 39.992625 44.689453 40.359375 L 44.679688 40.359375 C 44.429687 40.859375 44.629141 41.460938 45.119141 41.710938 C 45.269141 41.780937 45.420313 41.818359 45.570312 41.818359 C 45.940313 41.818359 46.290703 41.620531 46.470703 41.269531 C 46.720703 40.780531 46.52025 40.179688 46.03125 39.929688 C 45.90875 39.867188 45.779547 39.831875 45.650391 39.822266 z M 21.613281 39.882812 C 21.221594 39.85375 20.837891 40.052422 20.650391 40.419922 C 20.400391 40.919922 20.599844 41.519531 21.089844 41.769531 C 21.228844 41.839531 21.390016 41.880859 21.541016 41.880859 C 21.901016 41.880859 22.261641 41.680078 22.431641 41.330078 C 22.681641 40.840078 22.491953 40.240234 22.001953 39.990234 C 21.876953 39.927734 21.743844 39.8925 21.613281 39.882812 z M 34.382812 39.943359 C 34.252812 39.953047 34.1225 39.988281 34 40.050781 C 33.509 40.300781 33.308359 40.900625 33.568359 41.390625 C 33.739359 41.740625 34.099938 41.938453 34.460938 41.939453 C 34.609938 41.939453 34.769156 41.899078 34.910156 41.830078 C 35.399156 41.580078 35.599609 40.970469 35.349609 40.480469 C 35.162109 40.112969 34.772813 39.914297 34.382812 39.943359 z M 58.421875 40.001953 C 58.292813 40.011625 58.161563 40.046875 58.039062 40.109375 C 57.549062 40.359375 57.349609 40.959219 57.599609 41.449219 C 57.779609 41.799219 58.130234 42 58.490234 42 C 58.649234 42 58.799219 41.960625 58.949219 41.890625 C 59.439219 41.640625 59.640859 41.029063 59.380859 40.539062 C 59.193359 40.170812 58.809062 39.972938 58.421875 40.001953 z M 43.392578 43.220703 C 43.137453 43.239453 42.890438 43.355547 42.710938 43.560547 C 42.349938 43.980547 42.398359 44.610703 42.818359 44.970703 C 43.009359 45.140703 43.23975 45.210938 43.46875 45.210938 C 43.74975 45.210938 44.029516 45.098141 44.228516 44.869141 C 44.589516 44.449141 44.539141 43.819938 44.119141 43.460938 C 43.909141 43.280938 43.647703 43.201953 43.392578 43.220703 z M 19.355469 43.267578 C 19.099219 43.285078 18.849922 43.399375 18.669922 43.609375 C 18.309922 44.019375 18.349531 44.649531 18.769531 45.019531 C 18.959531 45.188531 19.188922 45.269531 19.419922 45.269531 C 19.700922 45.269531 19.979688 45.149687 20.179688 44.929688 L 20.179688 44.919922 C 20.539687 44.509922 20.500078 43.869766 20.080078 43.509766 C 19.875078 43.329766 19.611719 43.250078 19.355469 43.267578 z M 36.648438 43.316406 C 36.392187 43.301406 36.129922 43.383859 35.919922 43.568359 C 35.509922 43.938359 35.469844 44.568516 35.839844 44.978516 C 36.039844 45.199516 36.309844 45.318359 36.589844 45.318359 C 36.818844 45.318359 37.06 45.228594 37.25 45.058594 C 37.66 44.699594 37.699844 44.058437 37.339844 43.648438 C 37.154844 43.443937 36.904688 43.331406 36.648438 43.316406 z M 60.689453 43.363281 C 60.434453 43.349531 60.17375 43.434141 59.96875 43.619141 C 59.55875 43.999141 59.529438 44.629063 59.898438 45.039062 C 60.089437 45.259062 60.369672 45.369141 60.638672 45.369141 C 60.878672 45.369141 61.119594 45.280375 61.308594 45.109375 C 61.718594 44.740375 61.748906 44.098219 61.378906 43.699219 C 61.193906 43.489219 60.944453 43.377031 60.689453 43.363281 z M 40.039062 45 C 39.489062 45.01 39.050781 45.459531 39.050781 46.019531 C 39.060781 46.559531 39.510547 47 40.060547 47 L 40.070312 47 C 40.620312 46.99 41.060781 46.539516 41.050781 45.978516 C 41.050781 45.429516 40.589062 44.99 40.039062 45 z"/></svg>