<svg xmlns="http://www.w3.org/2000/svg"  viewBox="0 0 80 80" width="80px" height="80px"><path d="M 41.396484 6 A 1.0001 1.0001 0 0 0 41.125 7.9433594 C 46.250746 9.7371782 50.601582 13.146966 53.587891 17.560547 A 1.0001 1.0001 0 1 0 55.244141 16.439453 C 53.168472 13.371743 50.433233 10.82145 47.304688 8.828125 C 60.928147 12.084945 71 24.352521 71 39 C 71 56.132552 57.132552 70 40 70 C 25.350528 70 13.082932 59.925109 9.828125 46.298828 C 12.021731 49.742863 14.902429 52.701445 18.376953 54.849609 A 1.0001 1.0001 0 1 0 19.429688 53.150391 C 14.594866 50.161207 10.852494 45.582281 8.9433594 40.125 A 1.0001 1.0001 0 0 0 7 40.496094 C 7.7381418 58.060983 22.261929 72 40 72 C 58.213448 72 73 57.213448 73 39 C 73 21.261929 59.060983 6.7381418 41.496094 6 A 1.0001 1.0001 0 0 0 41.396484 6 z M 56.029297 18.865234 C 55.900141 18.873984 55.770938 18.908203 55.648438 18.970703 C 55.148437 19.220703 54.960938 19.820547 55.210938 20.310547 C 55.380938 20.660547 55.728609 20.859375 56.099609 20.859375 C 56.249609 20.859375 56.400781 20.829766 56.550781 20.759766 C 57.040781 20.499766 57.240234 19.900156 56.990234 19.410156 C 56.802734 19.042656 56.416766 18.838984 56.029297 18.865234 z M 57.707031 22.558594 C 57.577344 22.548437 57.443047 22.564375 57.310547 22.609375 C 56.790547 22.779375 56.499922 23.339141 56.669922 23.869141 C 56.809922 24.289141 57.199141 24.560547 57.619141 24.560547 C 57.719141 24.560547 57.829687 24.539766 57.929688 24.509766 C 58.460688 24.339766 58.741312 23.77 58.570312 23.25 C 58.442813 22.8525 58.096094 22.589063 57.707031 22.558594 z M 58.398438 26.449219 C 57.858438 26.539219 57.490078 27.059609 57.580078 27.599609 C 57.660078 28.089609 58.079594 28.439453 58.558594 28.439453 C 58.619594 28.439453 58.668516 28.439688 58.728516 28.429688 C 59.268516 28.339688 59.638828 27.829297 59.548828 27.279297 C 59.459828 26.729297 58.949438 26.359219 58.398438 26.449219 z M 58.898438 30.419922 C 58.339437 30.429922 57.899156 30.879687 57.910156 31.429688 C 57.910156 31.979688 58.359156 32.419922 58.910156 32.419922 L 58.919922 32.419922 C 59.469922 32.419922 59.910156 31.960156 59.910156 31.410156 C 59.899156 30.860156 59.449438 30.419922 58.898438 30.419922 z M 58.789062 34.419922 C 58.239062 34.339922 57.740156 34.719531 57.660156 35.269531 C 57.580156 35.819531 57.969766 36.320391 58.509766 36.400391 C 58.559766 36.410391 58.609391 36.410156 58.650391 36.410156 C 59.140391 36.410156 59.570625 36.050781 59.640625 35.550781 C 59.720625 35.000781 59.339062 34.499922 58.789062 34.419922 z M 57.683594 38.3125 C 57.295469 38.354219 56.952344 38.622031 56.839844 39.019531 C 56.679844 39.549531 56.97 40.109531 57.5 40.269531 C 57.6 40.299531 57.699062 40.310547 57.789062 40.310547 C 58.219063 40.310547 58.62 40.029609 58.75 39.599609 C 58.91 39.069609 58.609078 38.509609 58.080078 38.349609 C 57.947578 38.309609 57.812969 38.298594 57.683594 38.3125 z M 56.392578 42.035156 C 56.001875 42.017812 55.620969 42.224609 55.449219 42.599609 C 55.209219 43.099609 55.420156 43.699453 55.910156 43.939453 C 56.050156 43.999453 56.199609 44.039062 56.349609 44.039062 C 56.719609 44.039062 57.08 43.830703 57.25 43.470703 C 57.49 42.970703 57.279297 42.370859 56.779297 42.130859 C 56.654297 42.073359 56.522813 42.040938 56.392578 42.035156 z M 54.166016 45.511719 C 53.914641 45.557969 53.679531 45.699687 53.519531 45.929688 C 53.210531 46.379688 53.329297 47.010312 53.779297 47.320312 C 53.959297 47.440312 54.148609 47.490234 54.349609 47.490234 C 54.669609 47.490234 54.979687 47.340547 55.179688 47.060547 C 55.489688 46.600547 55.370156 45.979922 54.910156 45.669922 C 54.684656 45.514922 54.417391 45.465469 54.166016 45.511719 z M 51.818359 48.609375 C 51.563359 48.618125 51.309141 48.724688 51.119141 48.929688 C 50.739141 49.329687 50.759922 49.959844 51.169922 50.339844 C 51.358922 50.519844 51.599609 50.609375 51.849609 50.609375 C 52.119609 50.609375 52.380078 50.499063 52.580078 50.289062 C 52.960078 49.889063 52.938297 49.260859 52.529297 48.880859 C 52.329297 48.690859 52.073359 48.600625 51.818359 48.609375 z M 49.023438 51.316406 C 48.769813 51.285156 48.504063 51.349531 48.289062 51.519531 L 48.289062 51.529297 C 47.848062 51.869297 47.779141 52.499688 48.119141 52.929688 C 48.318141 53.179688 48.609156 53.310547 48.910156 53.310547 C 49.120156 53.310547 49.339297 53.239609 49.529297 53.099609 L 49.519531 53.099609 C 49.960531 52.749609 50.040453 52.129453 49.689453 51.689453 C 49.519953 51.474453 49.277062 51.347656 49.023438 51.316406 z M 45.476562 53.546875 C 45.347656 53.562188 45.219609 53.602422 45.099609 53.669922 C 44.619609 53.939922 44.450703 54.549297 44.720703 55.029297 C 44.899703 55.359297 45.239844 55.539062 45.589844 55.539062 C 45.759844 55.539063 45.930078 55.500156 46.080078 55.410156 C 46.560078 55.140156 46.730938 54.530781 46.460938 54.050781 C 46.258438 53.683281 45.863281 53.500937 45.476562 53.546875 z M 22.451172 54.833984 C 22.062578 54.836797 21.69625 55.066719 21.53125 55.449219 C 21.31025 55.949219 21.550547 56.539766 22.060547 56.759766 C 22.189547 56.809766 22.319172 56.839844 22.451172 56.839844 C 22.841172 56.839844 23.211094 56.610703 23.371094 56.220703 C 23.591094 55.720703 23.351797 55.130156 22.841797 54.910156 C 22.714297 54.857656 22.580703 54.833047 22.451172 54.833984 z M 42.003906 55.232422 C 41.873312 55.228047 41.739625 55.250781 41.609375 55.300781 L 41.619141 55.300781 C 41.098141 55.490781 40.839297 56.070078 41.029297 56.580078 C 41.179297 56.980078 41.55975 57.230469 41.96875 57.230469 C 42.08975 57.230469 42.209359 57.209922 42.318359 57.169922 C 42.838359 56.969922 43.098438 56.390859 42.898438 55.880859 C 42.756687 55.490859 42.395688 55.245547 42.003906 55.232422 z M 26.085938 56.119141 C 25.701703 56.177734 25.367031 56.461875 25.269531 56.859375 C 25.130531 57.399375 25.460234 57.940078 25.990234 58.080078 C 26.080234 58.100078 26.159281 58.109375 26.238281 58.109375 C 26.687281 58.109375 27.088984 57.799609 27.208984 57.349609 C 27.338984 56.809609 27.018516 56.270625 26.478516 56.140625 C 26.346266 56.105625 26.214016 56.099609 26.085938 56.119141 z M 37.929688 56.369141 C 37.389688 56.479141 37.039437 57.020547 37.148438 57.560547 C 37.249438 58.030547 37.669906 58.349609 38.128906 58.349609 C 38.198906 58.349609 38.269844 58.340078 38.339844 58.330078 C 38.880844 58.220078 39.219375 57.690391 39.109375 57.150391 C 38.999375 56.610391 38.469687 56.259141 37.929688 56.369141 z M 30.269531 56.789062 C 29.719531 56.739062 29.229688 57.139453 29.179688 57.689453 C 29.129687 58.239453 29.530078 58.729297 30.080078 58.779297 C 30.109078 58.789297 30.148688 58.789062 30.179688 58.789062 C 30.689687 58.789062 31.119922 58.400859 31.169922 57.880859 C 31.219922 57.330859 30.819531 56.849063 30.269531 56.789062 z M 34.119141 56.869141 C 33.559141 56.899141 33.139922 57.369922 33.169922 57.919922 C 33.199922 58.459922 33.639922 58.869141 34.169922 58.869141 L 34.220703 58.869141 L 34.230469 58.869141 C 34.770469 58.839141 35.199922 58.370547 35.169922 57.810547 C 35.139922 57.260547 34.669141 56.839141 34.119141 56.869141 z"/></svg>