<svg xmlns="http://www.w3.org/2000/svg"  viewBox="0 0 80 80" width="80px" height="80px"><path d="M 67.292969 9.292969 L 9.292969 67.292969 L 10.707031 68.707031 L 68.707031 10.707031 Z M 70 12 C 69.449219 12 69 12.449219 69 13 C 69 13.550781 69.449219 14 70 14 C 70.550781 14 71 13.550781 71 13 C 71 12.449219 70.550781 12 70 12 Z M 67 15 C 66.449219 15 66 15.449219 66 16 C 66 16.550781 66.449219 17 67 17 C 67.550781 17 68 16.550781 68 16 C 68 15.449219 67.550781 15 67 15 Z M 64 18 C 63.449219 18 63 18.449219 63 19 C 63 19.550781 63.449219 20 64 20 C 64.550781 20 65 19.550781 65 19 C 65 18.449219 64.550781 18 64 18 Z M 61 21 C 60.449219 21 60 21.449219 60 22 C 60 22.550781 60.449219 23 61 23 C 61.550781 23 62 22.550781 62 22 C 62 21.449219 61.550781 21 61 21 Z M 58 24 C 57.449219 24 57 24.449219 57 25 C 57 25.550781 57.449219 26 58 26 C 58.550781 26 59 25.550781 59 25 C 59 24.449219 58.550781 24 58 24 Z M 55 27 C 54.449219 27 54 27.449219 54 28 C 54 28.550781 54.449219 29 55 29 C 55.550781 29 56 28.550781 56 28 C 56 27.449219 55.550781 27 55 27 Z M 52 30 C 51.449219 30 51 30.449219 51 31 C 51 31.550781 51.449219 32 52 32 C 52.550781 32 53 31.550781 53 31 C 53 30.449219 52.550781 30 52 30 Z M 49 33 C 48.449219 33 48 33.449219 48 34 C 48 34.550781 48.449219 35 49 35 C 49.550781 35 50 34.550781 50 34 C 50 33.449219 49.550781 33 49 33 Z M 46 36 C 45.449219 36 45 36.449219 45 37 C 45 37.550781 45.449219 38 46 38 C 46.550781 38 47 37.550781 47 37 C 47 36.449219 46.550781 36 46 36 Z M 43 39 C 42.449219 39 42 39.449219 42 40 C 42 40.550781 42.449219 41 43 41 C 43.550781 41 44 40.550781 44 40 C 44 39.449219 43.550781 39 43 39 Z M 40 42 C 39.449219 42 39 42.449219 39 43 C 39 43.550781 39.449219 44 40 44 C 40.550781 44 41 43.550781 41 43 C 41 42.449219 40.550781 42 40 42 Z M 37 45 C 36.449219 45 36 45.449219 36 46 C 36 46.550781 36.449219 47 37 47 C 37.550781 47 38 46.550781 38 46 C 38 45.449219 37.550781 45 37 45 Z M 34 48 C 33.449219 48 33 48.449219 33 49 C 33 49.550781 33.449219 50 34 50 C 34.550781 50 35 49.550781 35 49 C 35 48.449219 34.550781 48 34 48 Z M 31 51 C 30.449219 51 30 51.449219 30 52 C 30 52.550781 30.449219 53 31 53 C 31.550781 53 32 52.550781 32 52 C 32 51.449219 31.550781 51 31 51 Z M 28 54 C 27.449219 54 27 54.449219 27 55 C 27 55.550781 27.449219 56 28 56 C 28.550781 56 29 55.550781 29 55 C 29 54.449219 28.550781 54 28 54 Z M 25 57 C 24.449219 57 24 57.449219 24 58 C 24 58.550781 24.449219 59 25 59 C 25.550781 59 26 58.550781 26 58 C 26 57.449219 25.550781 57 25 57 Z M 22 60 C 21.449219 60 21 60.449219 21 61 C 21 61.550781 21.449219 62 22 62 C 22.550781 62 23 61.550781 23 61 C 23 60.449219 22.550781 60 22 60 Z M 19 63 C 18.449219 63 18 63.449219 18 64 C 18 64.550781 18.449219 65 19 65 C 19.550781 65 20 64.550781 20 64 C 20 63.449219 19.550781 63 19 63 Z M 16 66 C 15.449219 66 15 66.449219 15 67 C 15 67.550781 15.449219 68 16 68 C 16.550781 68 17 67.550781 17 67 C 17 66.449219 16.550781 66 16 66 Z M 13 69 C 12.449219 69 12 69.449219 12 70 C 12 70.550781 12.449219 71 13 71 C 13.550781 71 14 70.550781 14 70 C 14 69.449219 13.550781 69 13 69 Z"/></svg>