<svg xmlns="http://www.w3.org/2000/svg" xmlns:xlink="http://www.w3.org/1999/xlink" viewBox="0,0,256,256" width="80px" height="80px" fill-rule="nonzero"><g fill="#ffffff" fill-rule="nonzero" stroke="none" stroke-width="1" stroke-linecap="butt" stroke-linejoin="miter" stroke-miterlimit="10" stroke-dasharray="" stroke-dashoffset="0" font-family="none" font-weight="none" font-size="none" text-anchor="none" style="mix-blend-mode: normal"><g transform="scale(3.2,3.2)"><path d="M29.24023,10c-0.17758,0 -0.33569,0.05886 -0.48047,0.14063c-0.15784,-0.09313 -0.33823,-0.1411 -0.52148,-0.13867c-3.18015,0 -6.38839,0.65221 -8.89453,2.23828c-2.50614,1.58608 -4.26562,4.21576 -4.26562,7.73828v11.54297c0,1.51217 -0.60752,3.01959 -1.49219,4.22266c-0.88467,1.20307 -2.05797,2.07325 -2.93359,2.35547c-0.0013,0.00065 -0.00261,0.0013 -0.00391,0.00195c-0.92386,0.30121 -1.64844,1.17593 -1.64844,2.23047v0.45508c0,0.97646 0.66787,1.8245 1.56836,2.08594c0.86732,0.25192 2.06725,1.11394 2.97461,2.32617c0.90736,1.21223 1.53711,2.74231 1.53711,4.2793v11.54297c0,3.52247 1.75763,6.15414 4.26367,7.74023c2.50604,1.5861 5.71391,2.23828 8.89453,2.23828c0.36064,0.0051 0.69608,-0.18438 0.87789,-0.49587c0.18181,-0.3115 0.18181,-0.69676 0,-1.00825c-0.18181,-0.3115 -0.51725,-0.50097 -0.87789,-0.49587c-2.89937,0 -5.77076,-0.63003 -7.82422,-1.92969c-2.05346,-1.29965 -3.33398,-3.1583 -3.33398,-6.04883v-11.54297c0,-2.07002 -0.8139,-3.98 -1.93555,-5.47852c-1.12164,-1.49852 -2.5369,-2.6168 -4.01758,-3.04687c-0.0867,-0.0251 -0.12695,-0.06305 -0.12695,-0.16602v-0.45508c0,-0.16346 0.08938,-0.27133 0.26953,-0.33008c1.44994,-0.46854 2.83515,-1.58644 3.92774,-3.07227c1.09358,-1.48718 1.88086,-3.37138 1.88086,-5.4082v-11.54297c0,-2.89048 1.28233,-4.74915 3.33594,-6.04883c2.05361,-1.29968 4.92537,-1.92774 7.82422,-1.92774c0.1841,0.0022 0.36523,-0.04646 0.52344,-0.14062c0.14422,0.08094 0.30191,0.13867 0.47852,0.13867c0.55,0 1,-0.45 1,-1c0,-0.55 -0.45,-1 -1,-1zM52,10c-0.36064,-0.0051 -0.69608,0.18438 -0.87789,0.49587c-0.18181,0.3115 -0.18181,0.69676 0,1.00825c0.18181,0.3115 0.51725,0.50097 0.87789,0.49587c2.89937,0 5.77076,0.63003 7.82422,1.92969c2.05346,1.29965 3.33398,3.1583 3.33398,6.04883v11.54297c0,2.03683 0.78923,3.91907 1.88281,5.40625c1.09358,1.48718 2.48026,2.60644 3.93164,3.07422h-0.00391c0.18015,0.05875 0.26953,0.16466 0.26953,0.32813v0.45508c0,0.10296 -0.03905,0.14057 -0.12695,0.16602c-1.48068,0.43008 -2.89593,1.54836 -4.01758,3.04688c-1.12164,1.49852 -1.93555,3.4085 -1.93555,5.47852v11.54297c0.00045,2.8916 -1.2807,4.75094 -3.33398,6.05078c-2.05329,1.29984 -4.92484,1.92969 -7.82422,1.92969c-0.18325,-0.00243 -0.36365,0.04554 -0.52148,0.13867c-0.14421,-0.08094 -0.30223,-0.13867 -0.47852,-0.13867c-0.55,0 -1,0.45 -1,1c0,0.55 0.45,1 1,1c0.17629,0 0.3343,-0.05774 0.47852,-0.13867c0.15784,0.09313 0.33823,0.1411 0.52148,0.13867c3.18062,0 6.38857,-0.65383 8.89453,-2.24023c2.50596,-1.58641 4.26422,-4.21684 4.26367,-7.74023v-11.54297c0,-1.53698 0.6278,-3.06706 1.53516,-4.2793c0.90736,-1.21223 2.10729,-2.07425 2.97461,-2.32617c0.9001,-0.26056 1.57031,-1.1089 1.57031,-2.08594v-0.45508c0,-1.05454 -0.72459,-1.92921 -1.64844,-2.23047c-0.0013,0 -0.0026,0 -0.00391,0c-0.87563,-0.28222 -2.04893,-1.1524 -2.93359,-2.35547c-0.88467,-1.20307 -1.49414,-2.71048 -1.49414,-4.22266v-11.54297c0,-3.52247 -1.75763,-6.15414 -4.26367,-7.74023c-2.50604,-1.5861 -5.71391,-2.23828 -8.89453,-2.23828zM51.93945,12.7207c-0.38883,0.04908 -0.72433,0.32547 -0.83008,0.73047c-0.15,0.529 0.16141,1.07952 0.69141,1.22852c0.09,0.02 0.17758,0.03125 0.26758,0.03125c0.44,0 0.84094,-0.29047 0.96094,-0.73047c0.15,-0.529 -0.15945,-1.07952 -0.68945,-1.22852c-0.135,-0.03775 -0.27078,-0.04761 -0.40039,-0.03125zM27.88477,12.82031c-0.13047,-0.00672 -0.26453,0.01305 -0.39453,0.06055c-0.521,0.189 -0.7808,0.7583 -0.5918,1.2793c0.141,0.409 0.53241,0.65916 0.94141,0.66016c0.111,0 0.21984,-0.02055 0.33984,-0.06055c0.521,-0.19 0.77961,-0.7683 0.59961,-1.2793c-0.1425,-0.39 -0.50313,-0.64 -0.89453,-0.66016zM54.97656,15.16406c-0.12922,0.01938 -0.25695,0.06422 -0.37695,0.13672c-0.47,0.28 -0.61984,0.88914 -0.33984,1.36914h0.00977c0.18,0.309 0.50961,0.47947 0.84961,0.48047c0.18,0 0.36148,-0.05063 0.52148,-0.14062c0.47,-0.29 0.61984,-0.89991 0.33984,-1.37891c-0.2175,-0.3525 -0.61625,-0.52492 -1.00391,-0.4668zM25.0332,15.45703c-0.38667,-0.033 -0.77961,0.1657 -0.97461,0.5332c-0.26,0.48 -0.06908,1.08961 0.41992,1.34961c0.151,0.08 0.31194,0.10938 0.46094,0.10938c0.361,0 0.70962,-0.1893 0.89063,-0.5293c0.26,-0.481 0.06908,-1.09056 -0.41992,-1.35156c-0.12025,-0.065 -0.24806,-0.10033 -0.37695,-0.11133zM56.13086,18.9707c-0.55,0 -1,0.45 -1,1c0,0.55 0.45,1 1,1c0.55,0 1,-0.45 1,-1c0,-0.55 -0.45,-1 -1,-1zM24.10938,19.31836c-0.55,0 -1,0.45 -1,1c0,0.551 0.451,1 1,1c0.551,0 1,-0.449 1,-1c0,-0.55 -0.449,-1 -1,-1zM56.13086,22.97852c-0.55,0 -1,0.45 -1,1c0,0.561 0.45,1 1,1c0.55,0 1,-0.439 1,-1c0,-0.55 -0.45,-1 -1,-1zM24.10938,23.33008c-0.55,0 -1,0.45 -1,1c0,0.56 0.451,1 1,1c0.551,0 1,-0.44 1,-1c0,-0.55 -0.449,-1 -1,-1zM56.13086,26.99023c-0.55,0 -1,0.449 -1,1c0,0.55 0.45,1 1,1c0.55,0 1,-0.45 1,-1c0,-0.551 -0.45,-1 -1,-1zM24.10938,27.33984c-0.55,0 -1,0.45 -1,1c0,0.55 0.451,1 1,1c0.551,0 1,-0.45 1,-1c0,-0.55 -0.449,-1 -1,-1zM24.05078,30.98633c-0.51281,0.02118 -0.92634,0.42712 -0.95703,0.93945c-0.12061,1.63964 -0.98399,3.28762 -2.14648,4.66602c-1.1625,1.3784 -2.6205,2.47431 -3.69922,3.01367c-0.33883,0.1694 -0.55287,0.51571 -0.55287,0.89453c0,0.37882 0.21404,0.72513 0.55287,0.89453c1.12283,0.56119 2.65395,1.72725 3.83984,3.18555c1.18589,1.4583 2.02148,3.18668 2.02148,4.89844c-0.0051,0.36064 0.18438,0.69608 0.49587,0.87789c0.3115,0.18181 0.69676,0.18181 1.00825,0c0.3115,-0.18181 0.50097,-0.51725 0.49587,-0.87789c0,-2.34424 -1.08939,-4.46396 -2.46875,-6.16016c-0.96346,-1.18477 -2.05492,-2.08002 -3.12695,-2.81445c1.01068,-0.69304 2.03645,-1.52686 2.96094,-2.62305c1.348,-1.59835 2.44989,-3.58528 2.61328,-5.80664c0.0255,-0.28666 -0.07372,-0.57041 -0.27229,-0.77871c-0.19858,-0.2083 -0.47727,-0.32096 -0.76482,-0.30918zM56.1582,30.98633c-0.27957,-0.00289 -0.54758,0.11139 -0.73906,0.31511c-0.19148,0.20372 -0.28894,0.4783 -0.26875,0.75716c0.00022,0.00344 -0.0022,0.00631 -0.00195,0.00977c0.00016,0.00213 0.00178,0.00569 0.00195,0.00781c0.16389,2.22057 1.26567,4.2068 2.61328,5.80469c0.92464,1.09637 1.95205,1.92996 2.96289,2.62305c-1.07211,0.73468 -2.16335,1.62951 -3.12695,2.81445c-1.37932,1.69616 -2.46875,3.81634 -2.46875,6.16016c-0.0051,0.36064 0.18438,0.69608 0.49587,0.87789c0.3115,0.18181 0.69676,0.18181 1.00825,0c0.3115,-0.18181 0.50097,-0.51725 0.49587,-0.87789c0,-1.71118 0.8336,-3.4401 2.01953,-4.89844c1.18593,-1.45834 2.7168,-2.62381 3.83984,-3.18555c0.33883,-0.1694 0.55287,-0.51571 0.55287,-0.89453c0,-0.37882 -0.21404,-0.72513 -0.55287,-0.89453c-1.07872,-0.53936 -2.53477,-1.63527 -3.69727,-3.01367c-1.15836,-1.37349 -2.02103,-3.01458 -2.14648,-4.64844c-0.00028,-0.00476 0.0023,-0.0089 0.00195,-0.01367c-0.00063,-0.00709 -0.00509,-0.01249 -0.00586,-0.01953c-0.03945,-0.51636 -0.46655,-0.91719 -0.98437,-0.92383zM56.13086,51.66016c-0.55,0 -1,0.439 -1,1c0,0.55 0.45,1 1,1c0.55,0 1,-0.45 1,-1c0,-0.561 -0.45,-1 -1,-1zM24.10938,52.49023c-0.55,0 -1,0.449 -1,1c0,0.55 0.451,1 1,1c0.551,0 1,-0.45 1,-1c0,-0.551 -0.449,-1 -1,-1zM56.13086,55.66992c-0.55,0 -1,0.439 -1,1c0,0.55 0.45,1 1,1c0.55,0 1,-0.45 1,-1c0,-0.561 -0.45,-1 -1,-1zM24.10938,56.5c-0.55,0 -1,0.439 -1,1c0,0.55 0.451,0.99023 1,0.99023c0.551,0 1,-0.44023 1,-0.99023c0,-0.561 -0.449,-1 -1,-1zM56.13086,59.67969c-0.55,0 -1,0.44 -1,1c0,0.549 0.45,1 1,1c0.55,0 1,-0.45 1,-1c0,-0.56 -0.45,-1 -1,-1zM24.05859,60.50977c-0.549,0.03 -0.96945,0.50078 -0.93945,1.05078c0.029,0.54 0.48,0.94922 1,0.94922h0.06055c0.549,-0.04 0.96845,-0.51055 0.93945,-1.06055c-0.031,-0.55 -0.49955,-0.96945 -1.06055,-0.93945zM55.37891,63.54688c-0.3878,-0.03394 -0.77375,0.16419 -0.96875,0.52344c-0.261,0.49 -0.0808,1.09937 0.4082,1.35938c0.151,0.08 0.3107,0.11033 0.4707,0.11133c0.36,0 0.71063,-0.1893 0.89063,-0.5293c0.26,-0.48 0.07008,-1.09156 -0.41992,-1.35156c-0.12275,-0.06525 -0.25159,-0.10197 -0.38086,-0.11328zM25.54297,64.26172c-0.25125,-0.04375 -0.51914,0.00797 -0.74414,0.16797c-0.45,0.32 -0.55947,0.95039 -0.23047,1.40039c0.191,0.27 0.5015,0.41992 0.8125,0.41992c0.2,0 0.40008,-0.05945 0.58008,-0.18945c0.45,-0.32 0.54852,-0.95162 0.22852,-1.39062c-0.16,-0.225 -0.39523,-0.36445 -0.64648,-0.4082zM52.45313,66.18164c-0.12958,-0.00664 -0.26233,0.01109 -0.39258,0.05859c-0.52,0.189 -0.78961,0.7593 -0.59961,1.2793c0.149,0.41 0.5285,0.66111 0.9375,0.66211c0.121,0 0.23156,-0.02055 0.35156,-0.06055c0.52,-0.19 0.77984,-0.7593 0.58984,-1.2793c-0.1425,-0.39075 -0.49798,-0.64024 -0.88672,-0.66016zM28.78906,66.39844c-0.55,-0.09 -1.06063,0.29008 -1.14062,0.83008c-0.09,0.551 0.29008,1.06063 0.83008,1.14063c0.051,0.01 0.11211,0.02148 0.16211,0.02148c0.48,0 0.90852,-0.36156 0.97852,-0.85156c0.09,-0.55 -0.29008,-1.06063 -0.83008,-1.14062z"></path></g></g></svg>