<svg xmlns="http://www.w3.org/2000/svg" xmlns:xlink="http://www.w3.org/1999/xlink" viewBox="0,0,256,256" width="80px" height="80px" fill-rule="nonzero"><g fill="#ffffff" fill-rule="nonzero" stroke="none" stroke-width="1" stroke-linecap="butt" stroke-linejoin="miter" stroke-miterlimit="10" stroke-dasharray="" stroke-dashoffset="0" font-family="none" font-weight="none" font-size="none" text-anchor="none" style="mix-blend-mode: normal"><g transform="scale(3.2,3.2)"><path d="M3.99023,33c-0.36064,-0.0051 -0.69608,0.18438 -0.87789,0.49587c-0.18181,0.3115 -0.18181,0.69676 0,1.00825c0.18181,0.3115 0.51725,0.50097 0.87789,0.49587c1.16606,0 1.9677,0.52497 2.79297,1.51563c0.82527,0.99066 1.5608,2.43164 2.31055,3.93164c0.74975,1.5 1.5134,3.05902 2.5625,4.31836c1.04758,1.25752 2.49505,2.23155 4.32422,2.23438c0.00199,0 0.00386,0 0.00586,0c0.36064,0.0051 0.69608,-0.18438 0.87789,-0.49587c0.18181,-0.3115 0.18181,-0.69676 0,-1.00825c-0.18181,-0.3115 -0.51725,-0.50097 -0.87789,-0.49587c-1.16605,0 -1.9677,-0.52497 -2.79297,-1.51562c-0.82527,-0.99066 -1.5608,-2.43164 -2.31055,-3.93164c-0.74975,-1.5 -1.5134,-3.05902 -2.5625,-4.31836c-1.0491,-1.25934 -2.49713,-2.23437 -4.33008,-2.23437zM76,33c-1.83392,0 -3.28206,0.97506 -4.33203,2.23438c-1.04997,1.25931 -1.81402,2.81837 -2.56445,4.31836c-0.75043,1.49999 -1.48835,2.94096 -2.31445,3.93164c-0.8261,0.99068 -1.62899,1.51563 -2.79687,1.51563c-0.36064,-0.0051 -0.69608,0.18438 -0.87789,0.49587c-0.18181,0.3115 -0.18181,0.69676 0,1.00825c0.18181,0.3115 0.51725,0.50097 0.87789,0.49587c1.83411,0 3.28387,-0.97506 4.33398,-2.23437c1.05011,-1.25932 1.81401,-2.81835 2.56445,-4.31836c0.75044,-1.50001 1.4865,-2.94095 2.3125,-3.93164c0.826,-0.99069 1.62929,-1.51562 2.79688,-1.51562c0.36064,0.0051 0.69608,-0.18438 0.87789,-0.49587c0.18181,-0.3115 0.18181,-0.69676 0,-1.00825c-0.18181,-0.3115 -0.51725,-0.50097 -0.87789,-0.49587zM50.10156,33.42383c-0.12906,0.00869 -0.25836,0.04297 -0.38086,0.10547c-0.5,0.25 -0.70117,0.84984 -0.45117,1.33984c0.18,0.35 0.53134,0.55078 0.90234,0.55078c0.149,0 0.2975,-0.03156 0.4375,-0.10156c0.5,-0.25 0.70117,-0.84984 0.45117,-1.33984c-0.1875,-0.375 -0.5718,-0.58075 -0.95898,-0.55469zM26.02148,33.45703c-0.12923,0.011 -0.25836,0.04633 -0.38086,0.11133c-0.49,0.25 -0.67992,0.86156 -0.41992,1.35156c0.17,0.34 0.51891,0.53102 0.87891,0.54102c0.16,0 0.32094,-0.04109 0.46094,-0.12109c0.491,-0.25 0.67969,-0.86061 0.42969,-1.34961c-0.19575,-0.3675 -0.58105,-0.5662 -0.96875,-0.5332zM30.01953,33.49023c-0.38766,-0.04031 -0.77375,0.15203 -0.96875,0.51953c-0.27,0.49 -0.09156,1.08837 0.39844,1.35938c0.15,0.08 0.3107,0.12009 0.4707,0.12109c0.36,0 0.70086,-0.1893 0.88086,-0.5293c0.27,-0.481 0.08961,-1.09056 -0.40039,-1.35156c-0.1225,-0.0675 -0.25164,-0.1057 -0.38086,-0.11914zM54.09766,33.5293c-0.3877,-0.04317 -0.77602,0.14195 -0.97852,0.50195c-0.27,0.479 -0.09914,1.08937 0.38086,1.35938c0.149,0.089 0.31923,0.12891 0.49023,0.12891c0.349,0 0.68014,-0.17977 0.86914,-0.50977c0.27,-0.479 0.09914,-1.08837 -0.38086,-1.35937c-0.12225,-0.06725 -0.25162,-0.1067 -0.38086,-0.12109zM47.58789,36.28711c-0.38578,-0.05602 -0.78805,0.11341 -0.99805,0.47266c-0.29,0.47 -0.13992,1.08109 0.33008,1.37109c0.16,0.099 0.34053,0.13867 0.51953,0.13867c0.341,0 0.66861,-0.16875 0.84961,-0.46875c0.29,-0.481 0.14187,-1.09086 -0.32812,-1.38086c-0.1175,-0.07 -0.24445,-0.11414 -0.37305,-0.13281zM23.54688,36.3418c-0.38578,-0.05742 -0.78609,0.11731 -0.99609,0.47656c-0.29,0.471 -0.13916,1.08109 0.33984,1.37109c0.16,0.101 0.33877,0.13967 0.50977,0.13867c0.34,0 0.66938,-0.16752 0.85938,-0.47852c0.28,-0.47 0.13016,-1.09109 -0.33984,-1.37109c-0.1175,-0.0725 -0.24445,-0.11758 -0.37305,-0.13672zM32.46289,36.39844c-0.12859,0.01789 -0.25555,0.06086 -0.37305,0.13086c-0.481,0.279 -0.62961,0.89914 -0.34961,1.36914c0.19,0.321 0.52038,0.49219 0.85938,0.49219c0.181,0 0.35077,-0.04062 0.50977,-0.14062c0.481,-0.28 0.63156,-0.89914 0.35156,-1.36914c-0.21,-0.36075 -0.61227,-0.53609 -0.99805,-0.48242zM56.50391,36.45898c-0.12859,0.01781 -0.25555,0.06086 -0.37305,0.13086c-0.481,0.28 -0.63156,0.89109 -0.35156,1.37109c0.19,0.31 0.52038,0.48923 0.85938,0.49023c0.17,0 0.35077,-0.05062 0.50977,-0.14062c0.481,-0.279 0.63156,-0.90009 0.35156,-1.37109c-0.21,-0.36 -0.61031,-0.53391 -0.99609,-0.48047zM45.65039,39.82227c-0.38747,-0.02883 -0.77344,0.17036 -0.96094,0.53711h-0.00977c-0.25,0.5 -0.05055,1.10156 0.43945,1.35156c0.15,0.07 0.30117,0.10742 0.45117,0.10742c0.37,0 0.72039,-0.19783 0.90039,-0.54883c0.25,-0.489 0.04955,-1.08984 -0.43945,-1.33984c-0.1225,-0.0625 -0.2517,-0.09781 -0.38086,-0.10742zM21.61328,39.88281c-0.39169,-0.02906 -0.77539,0.16961 -0.96289,0.53711c-0.25,0.5 -0.05055,1.09961 0.43945,1.34961c0.139,0.07 0.30017,0.11133 0.45117,0.11133c0.36,0 0.72063,-0.20078 0.89063,-0.55078c0.25,-0.49 0.06031,-1.08984 -0.42969,-1.33984c-0.125,-0.0625 -0.25811,-0.09773 -0.38867,-0.10742zM34.38281,39.94336c-0.13,0.00969 -0.26031,0.04492 -0.38281,0.10742c-0.491,0.25 -0.69164,0.84984 -0.43164,1.33984c0.171,0.35 0.53158,0.54783 0.89258,0.54883c0.149,0 0.30822,-0.04037 0.44922,-0.10937c0.489,-0.25 0.68945,-0.85961 0.43945,-1.34961c-0.1875,-0.3675 -0.5768,-0.56617 -0.9668,-0.53711zM58.42188,40.00195c-0.12906,0.00967 -0.26031,0.04492 -0.38281,0.10742c-0.49,0.25 -0.68945,0.84984 -0.43945,1.33984c0.18,0.35 0.53063,0.55078 0.89063,0.55078c0.159,0 0.30898,-0.03937 0.45898,-0.10937c0.49,-0.25 0.69164,-0.86156 0.43164,-1.35156c-0.1875,-0.36825 -0.5718,-0.56612 -0.95898,-0.53711zM43.39258,43.2207c-0.25512,0.01875 -0.50214,0.13484 -0.68164,0.33984c-0.361,0.42 -0.31258,1.05016 0.10742,1.41016c0.191,0.17 0.42139,0.24023 0.65039,0.24023c0.281,0 0.56077,-0.1128 0.75977,-0.3418c0.361,-0.42 0.31063,-1.0492 -0.10937,-1.4082c-0.21,-0.18 -0.47144,-0.25898 -0.72656,-0.24023zM19.35547,43.26758c-0.25625,0.0175 -0.50555,0.1318 -0.68555,0.3418c-0.36,0.41 -0.32039,1.04016 0.09961,1.41016c0.19,0.169 0.41939,0.25 0.65039,0.25c0.281,0 0.55977,-0.11984 0.75977,-0.33984v-0.00977c0.36,-0.41 0.32039,-1.05016 -0.09961,-1.41016c-0.205,-0.18 -0.46836,-0.25969 -0.72461,-0.24219zM36.64844,43.31641c-0.25625,-0.015 -0.51852,0.06745 -0.72852,0.25195c-0.41,0.37 -0.45008,1.00016 -0.08008,1.41016c0.2,0.221 0.47,0.33984 0.75,0.33984c0.229,0 0.47016,-0.08976 0.66016,-0.25977c0.41,-0.359 0.44984,-1.00016 0.08984,-1.41016c-0.185,-0.2045 -0.43516,-0.31703 -0.69141,-0.33203zM60.68945,43.36328c-0.255,-0.01375 -0.5157,0.07086 -0.7207,0.25586c-0.41,0.38 -0.43931,1.00992 -0.07031,1.41992c0.191,0.22 0.47123,0.33008 0.74023,0.33008c0.24,0 0.48092,-0.08877 0.66992,-0.25977c0.41,-0.369 0.44031,-1.01116 0.07031,-1.41016c-0.185,-0.21 -0.43445,-0.32219 -0.68945,-0.33594zM40.03906,45c-0.55,0.01 -0.98828,0.45953 -0.98828,1.01953c0.01,0.54 0.45977,0.98047 1.00977,0.98047h0.00977c0.55,-0.01 0.99047,-0.46048 0.98047,-1.02148c0,-0.549 -0.46172,-0.98852 -1.01172,-0.97852z"></path></g></g></svg>