<svg xmlns="http://www.w3.org/2000/svg" xmlns:xlink="http://www.w3.org/1999/xlink" viewBox="0,0,256,256" width="80px" height="80px" fill-rule="nonzero"><g fill="#ffffff" fill-rule="nonzero" stroke="none" stroke-width="1" stroke-linecap="butt" stroke-linejoin="miter" stroke-miterlimit="10" stroke-dasharray="" stroke-dashoffset="0" font-family="none" font-weight="none" font-size="none" text-anchor="none" style="mix-blend-mode: normal"><g transform="scale(3.2,3.2)"><path d="M41.39648,6c-0.47681,0.0269 -0.86807,0.38717 -0.93415,0.86014c-0.06607,0.47298 0.21148,0.92668 0.66267,1.08322c5.12575,1.79382 9.47658,5.20361 12.46289,9.61719c0.19795,0.30145 0.54288,0.47298 0.90271,0.44892c0.35983,-0.02407 0.67884,-0.24 0.83489,-0.56513c0.15605,-0.32513 0.12496,-0.70909 -0.08135,-1.00489c-2.07567,-3.06771 -4.81091,-5.618 -7.93945,-7.61133c13.62346,3.25682 23.69531,15.5244 23.69531,30.17188c0,17.13255 -13.86745,31 -31,31c-14.64947,0 -26.91707,-10.07489 -30.17187,-23.70117c2.19361,3.44403 5.0743,6.40262 8.54883,8.55078c0.3039,0.20381 0.69484,0.22538 1.01931,0.05624c0.32448,-0.16913 0.53068,-0.50197 0.53765,-0.86781c0.00697,-0.36584 -0.18642,-0.70629 -0.50422,-0.88765c-4.83482,-2.98918 -8.57719,-7.56811 -10.48633,-13.02539c-0.16349,-0.46782 -0.64492,-0.74536 -1.13169,-0.65241c-0.48677,0.09295 -0.83206,0.52836 -0.81167,1.0235c0.73814,17.56489 15.26193,31.50391 33,31.50391c18.21345,0 33,-14.78655 33,-33c0,-17.73807 -13.93902,-32.26186 -31.50391,-33c-0.03318,-0.00165 -0.06643,-0.00165 -0.09961,0zM56.0293,18.86523c-0.12916,0.00875 -0.25836,0.04297 -0.38086,0.10547c-0.5,0.25 -0.6875,0.84984 -0.4375,1.33984c0.17,0.35 0.51767,0.54883 0.88867,0.54883c0.15,0 0.30117,-0.02961 0.45117,-0.09961c0.49,-0.26 0.68945,-0.85961 0.43945,-1.34961c-0.1875,-0.3675 -0.57347,-0.57117 -0.96094,-0.54492zM57.70703,22.55859c-0.12969,-0.01016 -0.26398,0.00578 -0.39648,0.05078c-0.52,0.17 -0.81063,0.72977 -0.64062,1.25977c0.14,0.42 0.52922,0.69141 0.94922,0.69141c0.1,0 0.21055,-0.02078 0.31055,-0.05078c0.531,-0.17 0.81162,-0.73977 0.64062,-1.25977c-0.1275,-0.3975 -0.47422,-0.66094 -0.86328,-0.69141zM58.39844,26.44922c-0.54,0.09 -0.90836,0.61039 -0.81836,1.15039c0.08,0.49 0.49952,0.83984 0.97852,0.83984c0.061,0 0.10992,0.00023 0.16992,-0.00977c0.54,-0.09 0.91031,-0.60039 0.82031,-1.15039c-0.089,-0.55 -0.59939,-0.92008 -1.15039,-0.83008zM58.89844,30.41992c-0.559,0.01 -0.99928,0.45977 -0.98828,1.00977c0,0.55 0.449,0.99023 1,0.99023h0.00977c0.55,0 0.99023,-0.45977 0.99023,-1.00977c-0.011,-0.55 -0.46072,-0.99023 -1.01172,-0.99023zM58.78906,34.41992c-0.55,-0.08 -1.04891,0.29961 -1.12891,0.84961c-0.08,0.55 0.30961,1.05086 0.84961,1.13086c0.05,0.01 0.09963,0.00977 0.14063,0.00977c0.49,0 0.92023,-0.35937 0.99023,-0.85937c0.08,-0.55 -0.30156,-1.05086 -0.85156,-1.13086zM57.68359,38.3125c-0.38813,0.04172 -0.73125,0.30953 -0.84375,0.70703c-0.16,0.53 0.13016,1.09 0.66016,1.25c0.1,0.03 0.19906,0.04102 0.28906,0.04102c0.43,0 0.83094,-0.28094 0.96094,-0.71094c0.16,-0.53 -0.14092,-1.09 -0.66992,-1.25c-0.1325,-0.04 -0.26711,-0.05101 -0.39648,-0.03711zM56.39258,42.03516c-0.3907,-0.01734 -0.77161,0.18945 -0.94336,0.56445c-0.24,0.5 -0.02906,1.09984 0.46094,1.33984c0.14,0.06 0.28945,0.09961 0.43945,0.09961c0.37,0 0.73039,-0.20836 0.90039,-0.56836c0.24,-0.5 0.0293,-1.09984 -0.4707,-1.33984c-0.125,-0.0575 -0.25648,-0.08992 -0.38672,-0.0957zM54.16602,45.51172c-0.25137,0.04625 -0.48649,0.18797 -0.64648,0.41797c-0.309,0.45 -0.19023,1.08062 0.25977,1.39062c0.18,0.12 0.36931,0.16992 0.57031,0.16992c0.32,0 0.63008,-0.14969 0.83008,-0.42969c0.31,-0.46 0.19047,-1.08062 -0.26953,-1.39062c-0.2255,-0.155 -0.49276,-0.20445 -0.74414,-0.1582zM51.81836,48.60938c-0.255,0.00875 -0.50922,0.11531 -0.69922,0.32031c-0.38,0.4 -0.35922,1.03016 0.05078,1.41016c0.189,0.18 0.42969,0.26953 0.67969,0.26953c0.27,0 0.53047,-0.11031 0.73047,-0.32031c0.38,-0.4 0.35822,-1.0282 -0.05078,-1.4082c-0.2,-0.19 -0.45594,-0.28023 -0.71094,-0.27148zM49.02344,51.31641c-0.25362,-0.03125 -0.51937,0.03312 -0.73438,0.20313v0.00977c-0.441,0.34 -0.50992,0.97039 -0.16992,1.40039c0.199,0.25 0.49001,0.38086 0.79102,0.38086c0.21,0 0.42914,-0.07094 0.61914,-0.21094h-0.00977c0.441,-0.35 0.52092,-0.97016 0.16992,-1.41016c-0.1695,-0.215 -0.41239,-0.3418 -0.66602,-0.37305zM45.47656,53.54688c-0.12891,0.01531 -0.25695,0.05555 -0.37695,0.12305c-0.48,0.27 -0.64891,0.87938 -0.37891,1.35938c0.179,0.33 0.51914,0.50977 0.86914,0.50977c0.17,0 0.34023,-0.03891 0.49023,-0.12891c0.48,-0.27 0.65086,-0.87938 0.38086,-1.35937c-0.2025,-0.3675 -0.59766,-0.54984 -0.98438,-0.50391zM22.45117,54.83398c-0.38859,0.00281 -0.75492,0.23273 -0.91992,0.61523c-0.221,0.5 0.0193,1.09055 0.5293,1.31055c0.129,0.05 0.25862,0.08008 0.39063,0.08008c0.39,0 0.75992,-0.22914 0.91992,-0.61914c0.22,-0.5 -0.0193,-1.09055 -0.5293,-1.31055c-0.1275,-0.0525 -0.26109,-0.07711 -0.39062,-0.07617zM42.00391,55.23242c-0.13059,-0.00438 -0.26428,0.01836 -0.39453,0.06836h0.00977c-0.521,0.19 -0.77984,0.7693 -0.58984,1.2793c0.15,0.4 0.53045,0.65039 0.93945,0.65039c0.121,0 0.24061,-0.02055 0.34961,-0.06055c0.52,-0.2 0.78008,-0.77906 0.58008,-1.28906c-0.14175,-0.39 -0.50275,-0.63531 -0.89453,-0.64844zM26.08594,56.11914c-0.38424,0.05859 -0.71891,0.34273 -0.81641,0.74023c-0.139,0.54 0.1907,1.0807 0.7207,1.2207c0.09,0.02 0.16905,0.0293 0.24805,0.0293c0.449,0 0.8507,-0.30977 0.9707,-0.75977c0.13,-0.54 -0.19047,-1.07898 -0.73047,-1.20898c-0.13225,-0.035 -0.2645,-0.04102 -0.39258,-0.02148zM37.92969,56.36914c-0.54,0.11 -0.89025,0.65141 -0.78125,1.19141c0.101,0.47 0.52147,0.78906 0.98047,0.78906c0.07,0 0.14094,-0.00953 0.21094,-0.01953c0.541,-0.11 0.87953,-0.63969 0.76953,-1.17969c-0.11,-0.54 -0.63969,-0.89125 -1.17969,-0.78125zM30.26953,56.78906c-0.55,-0.05 -1.03984,0.35039 -1.08984,0.90039c-0.05,0.55 0.35039,1.03984 0.90039,1.08984c0.029,0.01 0.06861,0.00977 0.09961,0.00977c0.51,0 0.94023,-0.3882 0.99023,-0.9082c0.05,-0.55 -0.35039,-1.0318 -0.90039,-1.0918zM34.11914,56.86914c-0.56,0.03 -0.97922,0.50078 -0.94922,1.05078c0.03,0.54 0.47,0.94922 1,0.94922h0.05078h0.00977c0.54,-0.03 0.96945,-0.49859 0.93945,-1.05859c-0.03,-0.55 -0.50078,-0.97141 -1.05078,-0.94141z"></path></g></g></svg>