<svg xmlns="http://www.w3.org/2000/svg" xmlns:xlink="http://www.w3.org/1999/xlink" viewBox="0,0,256,256" width="80px" height="80px" fill-rule="nonzero"><g fill="#ffffff" fill-rule="nonzero" stroke="none" stroke-width="1" stroke-linecap="butt" stroke-linejoin="miter" stroke-miterlimit="10" stroke-dasharray="" stroke-dashoffset="0" font-family="none" font-weight="none" font-size="none" text-anchor="none" style="mix-blend-mode: normal"><g transform="scale(3.2,3.2)"><path d="M39.93945,1.86523l-0.86328,1.62305l-5.8125,10.91797l-12.26367,-7.19336v13.78711h-13.81055l7.35352,12.2168l-12.68359,6.72266l12.5957,6.97461l-7.26562,12.08594h13.81055v13.70703l12.17188,-7.16602l6.7832,12.50977l6.82227,-12.51172l12.22266,7.16406v-13.70312h13.69531l-7.01953,-12.08594l12.34961,-6.97461l-12.4375,-6.72266l7.10938,-12.2168h-13.69727v-13.82031l-12.03906,7.32031zM39.97656,6.05078l6.24609,11.24023l10.77734,-6.55469v12.26367h12.21875l-6.39844,10.99609l11.07031,5.98242l-10.96094,6.19141l6.29102,10.83008h-12.2207v12.21289l-10.99219,-6.44336l-6.04687,11.09375l-6.01953,-11.0957l-10.94141,6.44141v-12.20898h-12.27344l6.50977,-10.83008l-11.17969,-6.19141l11.28906,-5.98242l-6.61914,-10.99609h12.27344v-12.29687l11.05078,6.48242zM37.91211,15.00391c-0.55,0.051 -0.9482,0.53008 -0.9082,1.08008c0.04,0.55 0.52813,0.96016 1.07813,0.91016c0.52,-0.04 0.92188,-0.47923 0.92188,-0.99023c0,-0.029 -0.00172,-0.05984 -0.01172,-0.08984c-0.04,-0.55 -0.52008,-0.96016 -1.08008,-0.91016zM42.07422,15.00781c-0.55,-0.05 -1.03031,0.36016 -1.07031,0.91016c-0.05,0.55 0.36016,1.03813 0.91016,1.07813c0.55,0.04 1.03008,-0.36992 1.08008,-0.91992v-0.08008c0,-0.51 -0.38992,-0.94828 -0.91992,-0.98828zM29.63867,17.23438c-0.12367,0.00816 -0.24939,0.03991 -0.36914,0.09766c-0.501,0.233 -0.70975,0.82822 -0.46875,1.32422c0.233,0.501 0.83212,0.71952 1.32813,0.47852c0.496,-0.241 0.70661,-0.83494 0.47461,-1.33594c-0.01,-0.017 -0.02602,-0.04431 -0.04102,-0.07031c-0.192,-0.33075 -0.55281,-0.51861 -0.92383,-0.49414zM50.3457,17.23438c-0.38775,-0.01444 -0.76456,0.20027 -0.94531,0.57227c-0.241,0.496 -0.02248,1.09512 0.47852,1.32813c0.47,0.226 1.03597,0.04747 1.29297,-0.39453c0.015,-0.025 0.02916,-0.05298 0.03516,-0.08398c0.241,-0.496 0.03344,-1.09013 -0.47656,-1.32812c-0.12525,-0.058 -0.25552,-0.08894 -0.38477,-0.09375zM40,19c-11.58613,0 -21,9.41387 -21,21c0,11.58613 9.41387,21 21,21c11.58613,0 21,-9.41387 21,-21c0,-11.58613 -9.41387,-21 -21,-21zM26.41797,19.24609c-0.2515,-0.04512 -0.52,0.00597 -0.75,0.16797c-0.45,0.32 -0.55609,0.93658 -0.24609,1.39258c0.31,0.455 0.93962,0.56509 1.39063,0.24609c0.43,-0.295 0.55483,-0.87636 0.29883,-1.31836c-0.015,-0.026 -0.02873,-0.05322 -0.05273,-0.07422c-0.155,-0.2275 -0.38912,-0.36894 -0.64062,-0.41406zM53.58398,19.25195c-0.25037,0.04563 -0.48367,0.18802 -0.63867,0.41602c-0.319,0.451 -0.20991,1.07963 0.24609,1.39063c0.456,0.311 1.07749,0.19609 1.39648,-0.25391c0.01,-0.017 0.02602,-0.04331 0.04102,-0.07031c0.255,-0.441 0.13822,-1.01541 -0.30078,-1.31641c-0.2255,-0.1595 -0.49377,-0.21164 -0.74414,-0.16602zM40,21c10.50525,0 19,8.49475 19,19c0,10.50525 -8.49475,19 -19,19c-10.50525,0 -19,-8.49475 -19,-19c0,-10.50525 8.49475,-19 19,-19zM20.38672,25.24609c-0.36216,-0.05438 -0.74105,0.09458 -0.9668,0.42383c-0.319,0.451 -0.206,1.07086 0.25,1.38086c0.451,0.318 1.07963,0.20991 1.39063,-0.24609c0.31,-0.456 0.19609,-1.07748 -0.25391,-1.39648c-0.017,-0.009 -0.04331,-0.02306 -0.07031,-0.03906c-0.11025,-0.06375 -0.22889,-0.10492 -0.34961,-0.12305zM59.93945,25.25586c-0.25075,-0.04387 -0.52005,0.00711 -0.74805,0.16211c-0.456,0.31 -0.56509,0.93962 -0.24609,1.39063c0.295,0.43 0.87636,0.55678 1.31836,0.30078c0.026,-0.015 0.05322,-0.03069 0.07422,-0.05469c0.456,-0.31 0.56814,-0.93062 0.24414,-1.39063c-0.16,-0.2255 -0.39183,-0.36433 -0.64258,-0.4082zM18.27539,28.69141c-0.38775,-0.01875 -0.76877,0.19442 -0.94727,0.57617c-0.232,0.501 -0.01748,1.08713 0.47852,1.32813c0.496,0.241 1.09708,0.02248 1.33008,-0.47852c0.227,-0.47 0.04552,-1.03597 -0.39648,-1.29297c-0.025,-0.014 -0.05103,-0.02916 -0.08203,-0.03516c-0.124,-0.06025 -0.25356,-0.09141 -0.38281,-0.09766zM61.72461,28.69922c-0.12917,0.00639 -0.25881,0.03936 -0.38281,0.09961c-0.5,0.233 -0.71952,0.83213 -0.47852,1.32813c0.241,0.495 0.83689,0.70466 1.33789,0.47266c0.017,-0.01 0.04331,-0.02406 0.07031,-0.03906c0.441,-0.256 0.62553,-0.81397 0.39453,-1.29297c-0.17475,-0.375 -0.55389,-0.58753 -0.94141,-0.56836zM63.91602,37.00391c-0.55,0.04 -0.96016,0.52813 -0.91016,1.07813c0.04,0.52 0.47923,0.92188 0.99023,0.92188c0.029,0 0.05984,-0.00172 0.08984,-0.01172c0.55,-0.04 0.96016,-0.52008 0.91016,-1.08008c-0.051,-0.55 -0.53008,-0.9482 -1.08008,-0.9082zM15.99609,37.00586c-0.51,0 -0.94828,0.38992 -0.98828,0.91992c-0.05,0.55 0.36016,1.03031 0.91016,1.07031c0.55,0.05 1.03813,-0.36016 1.07813,-0.91016c0.04,-0.55 -0.36992,-1.03008 -0.91992,-1.08008zM16.00391,40.99609c-0.029,0 -0.05984,0.00172 -0.08984,0.01172c-0.55,0.04 -0.96016,0.52008 -0.91016,1.08008c0.051,0.55 0.53008,0.9482 1.08008,0.9082c0.55,-0.04 0.96016,-0.52813 0.91016,-1.07812c-0.04,-0.52 -0.47923,-0.92187 -0.99023,-0.92187zM64.08203,41.00391c-0.55,-0.05 -1.03813,0.36016 -1.07812,0.91016c-0.04,0.55 0.36992,1.03008 0.91992,1.08008h0.08008c0.51,0 0.94828,-0.38992 0.98828,-0.91992c0.05,-0.55 -0.36016,-1.03031 -0.91016,-1.07031zM18.15039,49.22656c-0.13011,0.00472 -0.26122,0.0343 -0.38672,0.0918c-0.017,0.009 -0.04236,0.02306 -0.06836,0.03906c-0.442,0.254 -0.62939,0.81102 -0.40039,1.29102c0.231,0.501 0.82527,0.71361 1.32227,0.47461c0.501,-0.23 0.72142,-0.82917 0.48242,-1.32617c-0.17925,-0.372 -0.55889,-0.58447 -0.94922,-0.57031zM61.77539,49.38477c-0.38887,-0.01833 -0.77102,0.19531 -0.94727,0.57031c-0.228,0.47 -0.04937,1.03792 0.39063,1.29492c0.026,0.014 0.05103,0.02916 0.08203,0.03516c0.495,0.243 1.09203,0.03634 1.33203,-0.47266c0.234,-0.5 0.02039,-1.08708 -0.47461,-1.33008c-0.12375,-0.06075 -0.25319,-0.09155 -0.38281,-0.09766zM20.03906,52.69531c-0.12127,0.01698 -0.24081,0.05564 -0.35156,0.11914c-0.026,0.015 -0.05127,0.03069 -0.07227,0.05469c-0.456,0.309 -0.57395,0.92963 -0.25195,1.39063c0.318,0.452 0.93362,0.559 1.39063,0.25c0.456,-0.309 0.56895,-0.93863 0.25195,-1.39062c-0.2205,-0.32325 -0.603,-0.47478 -0.9668,-0.42383zM59.53711,52.85156c-0.25275,0.04338 -0.48853,0.18266 -0.64453,0.41016c-0.312,0.455 -0.20095,1.07548 0.24805,1.39648c0.017,0.01 0.04331,0.02602 0.07031,0.04102c0.44,0.257 1.01636,0.14308 1.31836,-0.29492c0.32,-0.45 0.20791,-1.07081 -0.24609,-1.38281c-0.225,-0.16 -0.49334,-0.2133 -0.74609,-0.16992zM25.98828,58.73047c-0.25225,0.04512 -0.48598,0.18566 -0.64648,0.41016c-0.01,0.017 -0.02602,0.04331 -0.04102,0.07031c-0.257,0.44 -0.14308,1.01636 0.29492,1.31836c0.45,0.32 1.07081,0.20791 1.38281,-0.24609c0.32,-0.45 0.21476,-1.07863 -0.24023,-1.39062c-0.2275,-0.156 -0.49775,-0.20723 -0.75,-0.16211zM53.86914,58.83008c-0.25238,-0.04537 -0.524,0.00556 -0.75,0.16406c-0.431,0.294 -0.55869,0.87536 -0.30469,1.31836c0.015,0.026 0.03069,0.05127 0.05469,0.07227c0.309,0.456 0.92963,0.57395 1.39063,0.25195c0.452,-0.318 0.559,-0.93362 0.25,-1.39062c-0.1545,-0.228 -0.38825,-0.37064 -0.64062,-0.41602zM29.67969,60.73047c-0.3698,-0.0255 -0.73694,0.15828 -0.92969,0.48828c-0.014,0.026 -0.02916,0.05103 -0.03516,0.08203c-0.243,0.495 -0.03634,1.09203 0.47266,1.33203c0.5,0.234 1.08708,0.02039 1.33008,-0.47461c0.243,-0.495 0.02734,-1.09508 -0.47266,-1.33008c-0.1175,-0.057 -0.24197,-0.08916 -0.36523,-0.09766zM50.18164,60.80469c-0.12973,0.00506 -0.26052,0.03595 -0.38477,0.0957c-0.496,0.239 -0.70852,0.83394 -0.47852,1.33594c0.009,0.017 0.02306,0.04236 0.03906,0.06836c0.254,0.442 0.81102,0.62939 1.29102,0.40039c0.501,-0.231 0.71361,-0.82527 0.47461,-1.32227c-0.1725,-0.37575 -0.5522,-0.59331 -0.94141,-0.57812zM38.08594,63.00391c-0.55,-0.04 -1.03008,0.36992 -1.08008,0.91992v0.08008c0,0.51 0.38992,0.94828 0.91992,0.98828c0.55,0.05 1.03031,-0.36016 1.07031,-0.91016c0.05,-0.55 -0.36016,-1.03813 -0.91016,-1.07812zM41.91797,63.00586c-0.52,0.04 -0.92187,0.47923 -0.92187,0.99023c0,0.029 0.00172,0.05984 0.01172,0.08984c0.04,0.55 0.52008,0.96016 1.08008,0.91016c0.55,-0.051 0.9482,-0.53008 0.9082,-1.08008c-0.04,-0.55 -0.52813,-0.96016 -1.07812,-0.91016z"></path></g></g></svg>